{
    "asset" : {
        "generator" : "Khronos glTF Blender I/O v1.3.48",
        "version" : "2.0"
    },
    "scene" : 0,
    "scenes" : [
        {
            "name" : "Scene",
            "nodes" : [
                0,
                1,
                2,
                3,
                4,
                5,
                6
            ]
        }
    ],
    "nodes" : [
        {
            "mesh" : 0,
            "name" : "Q1b",
            "rotation" : [
                0.7071068286895752,
                0,
                0,
                0.7071068286895752
            ],
            "translation" : [
                -5.178365707397461,
                0,
                0
            ]
        },
        {
            "mesh" : 1,
            "name" : "A",
            "rotation" : [
                0.7071068286895752,
                0,
                0,
                0.7071068286895752
            ],
            "translation" : [
                -0.25588780641555786,
                0.5068235397338867,
                7.155990123748779
            ]
        },
        {
            "mesh" : 2,
            "name" : "Cone",
            "rotation" : [
                -0.7071068286895752,
                0,
                0,
                0.7071068286895752
            ],
            "scale" : [
                0.17370647192001343,
                0.17370647192001343,
                0.17370647192001343
            ],
            "translation" : [
                -0.015314102172851562,
                0.6817259788513184,
                4.7463459968566895
            ]
        },
        {
            "mesh" : 3,
            "name" : "Cone.001",
            "rotation" : [
                -1,
                0,
                0,
                -1.6292068494294654e-07
            ],
            "scale" : [
                0.17370647192001343,
                0.17370647192001343,
                0.17370647192001343
            ],
            "translation" : [
                -0.015314102172851562,
                5.6419901847839355,
                -0.0024726390838623047
            ]
        },
        {
            "mesh" : 4,
            "name" : "Cone.002",
            "rotation" : [
                -0.7071068286895752,
                0.7071067690849304,
                0,
                -1.9949602858559956e-07
            ],
            "scale" : [
                0.17370647192001343,
                0.17370647192001343,
                0.17370647192001343
            ],
            "translation" : [
                7.072878837585449,
                0.7798151969909668,
                0.07067930698394775
            ]
        },
        {
            "mesh" : 5,
            "name" : "Text",
            "rotation" : [
                0.7071068286895752,
                0,
                0,
                0.7071068286895752
            ],
            "translation" : [
                -1.1203680038452148,
                8.624208450317383,
                -0.011034488677978516
            ]
        },
        {
            "mesh" : 6,
            "name" : "Text.001",
            "rotation" : [
                0.7071068286895752,
                0,
                0,
                0.7071068286895752
            ],
            "translation" : [
                9.7387056350708,
                0.49358922243118286,
                -0.18452522158622742
            ]
        }
    ],
    "materials" : [
        {
            "doubleSided" : true,
            "emissiveFactor" : [
                0,
                0,
                0
            ],
            "name" : "Material.004",
            "pbrMetallicRoughness" : {
                "baseColorFactor" : [
                    1,
                    1,
                    1,
                    1
                ],
                "metallicFactor" : 0,
                "roughnessFactor" : 0.5
            }
        },
        {
            "doubleSided" : true,
            "emissiveFactor" : [
                0,
                0,
                0
            ],
            "name" : "Material.002",
            "pbrMetallicRoughness" : {
                "baseColorFactor" : [
                    1,
                    1,
                    1,
                    1
                ],
                "metallicFactor" : 0,
                "roughnessFactor" : 0.5
            }
        },
        {
            "doubleSided" : true,
            "emissiveFactor" : [
                0,
                0,
                0
            ],
            "name" : "Material.001",
            "pbrMetallicRoughness" : {
                "baseColorFactor" : [
                    0.719693660736084,
                    0.7156399488449097,
                    1,
                    1
                ],
                "metallicFactor" : 0,
                "roughnessFactor" : 0.5
            }
        },
        {
            "doubleSided" : true,
            "emissiveFactor" : [
                0,
                0,
                0
            ],
            "name" : "Material.003",
            "pbrMetallicRoughness" : {
                "baseColorFactor" : [
                    1,
                    1,
                    1,
                    1
                ],
                "metallicFactor" : 0,
                "roughnessFactor" : 0.5
            }
        },
        {
            "doubleSided" : true,
            "emissiveFactor" : [
                0,
                0,
                0
            ],
            "name" : "Material",
            "pbrMetallicRoughness" : {
                "baseColorFactor" : [
                    0,
                    0,
                    0,
                    1
                ],
                "metallicFactor" : 0,
                "roughnessFactor" : 0.5
            }
        },
        {
            "doubleSided" : true,
            "emissiveFactor" : [
                0,
                0,
                0
            ],
            "name" : "Material.006",
            "pbrMetallicRoughness" : {
                "baseColorFactor" : [
                    0,
                    0,
                    0,
                    1
                ],
                "metallicFactor" : 0,
                "roughnessFactor" : 0.5
            }
        },
        {
            "doubleSided" : true,
            "emissiveFactor" : [
                0,
                0,
                0
            ],
            "name" : "Material.005",
            "pbrMetallicRoughness" : {
                "baseColorFactor" : [
                    0,
                    0,
                    0,
                    1
                ],
                "metallicFactor" : 0,
                "roughnessFactor" : 0.5
            }
        }
    ],
    "meshes" : [
        {
            "name" : "Q1b",
            "primitives" : [
                {
                    "attributes" : {
                        "POSITION" : 0,
                        "NORMAL" : 1
                    },
                    "indices" : 2,
                    "material" : 0
                },
                {
                    "attributes" : {
                        "POSITION" : 3,
                        "NORMAL" : 4
                    },
                    "indices" : 5,
                    "material" : 1
                },
                {
                    "attributes" : {
                        "POSITION" : 6,
                        "NORMAL" : 7
                    },
                    "indices" : 8,
                    "material" : 2
                },
                {
                    "attributes" : {
                        "POSITION" : 9,
                        "NORMAL" : 10
                    },
                    "indices" : 11,
                    "material" : 3
                },
                {
                    "attributes" : {
                        "POSITION" : 12,
                        "NORMAL" : 13
                    },
                    "indices" : 14,
                    "material" : 4
                }
            ]
        },
        {
            "name" : "Text",
            "primitives" : [
                {
                    "attributes" : {
                        "POSITION" : 15,
                        "NORMAL" : 16,
                        "TEXCOORD_0" : 17
                    },
                    "indices" : 18,
                    "material" : 5
                }
            ]
        },
        {
            "name" : "Cone",
            "primitives" : [
                {
                    "attributes" : {
                        "POSITION" : 19,
                        "NORMAL" : 20,
                        "TEXCOORD_0" : 21
                    },
                    "indices" : 22,
                    "material" : 6
                }
            ]
        },
        {
            "name" : "Cone.001",
            "primitives" : [
                {
                    "attributes" : {
                        "POSITION" : 23,
                        "NORMAL" : 24,
                        "TEXCOORD_0" : 25
                    },
                    "indices" : 22,
                    "material" : 6
                }
            ]
        },
        {
            "name" : "Cone.002",
            "primitives" : [
                {
                    "attributes" : {
                        "POSITION" : 26,
                        "NORMAL" : 27,
                        "TEXCOORD_0" : 28
                    },
                    "indices" : 22,
                    "material" : 6
                }
            ]
        },
        {
            "name" : "Text.001",
            "primitives" : [
                {
                    "attributes" : {
                        "POSITION" : 29,
                        "NORMAL" : 30,
                        "TEXCOORD_0" : 31
                    },
                    "indices" : 32,
                    "material" : 5
                }
            ]
        },
        {
            "name" : "Text.002",
            "primitives" : [
                {
                    "attributes" : {
                        "POSITION" : 33,
                        "NORMAL" : 34,
                        "TEXCOORD_0" : 35
                    },
                    "indices" : 36,
                    "material" : 5
                }
            ]
        }
    ],
    "accessors" : [
        {
            "bufferView" : 0,
            "componentType" : 5126,
            "count" : 378,
            "max" : [
                2.4926645755767822,
                2.4981653690338135,
                0.30000001192092896
            ],
            "min" : [
                -2.5,
                -2.4981653690338135,
                -3.200000047683716
            ],
            "type" : "VEC3"
        },
        {
            "bufferView" : 1,
            "componentType" : 5126,
            "count" : 378,
            "type" : "VEC3"
        },
        {
            "bufferView" : 2,
            "componentType" : 5123,
            "count" : 423,
            "type" : "SCALAR"
        },
        {
            "bufferView" : 3,
            "componentType" : 5126,
            "count" : 400,
            "max" : [
                11.295747756958008,
                2.4830784797668457,
                0.2879234552383423
            ],
            "min" : [
                -1.5927550792694092,
                -2.471283197402954,
                -2
            ],
            "type" : "VEC3"
        },
        {
            "bufferView" : 4,
            "componentType" : 5126,
            "count" : 400,
            "type" : "VEC3"
        },
        {
            "bufferView" : 5,
            "componentType" : 5123,
            "count" : 627,
            "type" : "SCALAR"
        },
        {
            "bufferView" : 6,
            "componentType" : 5126,
            "count" : 1293,
            "max" : [
                11.292908668518066,
                2.4981653690338135,
                0.30000001192092896
            ],
            "min" : [
                -2.5,
                -2.4981653690338135,
                -3.200000047683716
            ],
            "type" : "VEC3"
        },
        {
            "bufferView" : 7,
            "componentType" : 5126,
            "count" : 1293,
            "type" : "VEC3"
        },
        {
            "bufferView" : 8,
            "componentType" : 5123,
            "count" : 1440,
            "type" : "SCALAR"
        },
        {
            "bufferView" : 9,
            "componentType" : 5126,
            "count" : 14,
            "max" : [
                11.300000190734863,
                1.1922416687011719,
                0.29075267910957336
            ],
            "min" : [
                11.300000190734863,
                -1.1953235864639282,
                -0.894085168838501
            ],
            "type" : "VEC3"
        },
        {
            "bufferView" : 10,
            "componentType" : 5126,
            "count" : 14,
            "type" : "VEC3"
        },
        {
            "bufferView" : 11,
            "componentType" : 5123,
            "count" : 18,
            "type" : "SCALAR"
        },
        {
            "bufferView" : 12,
            "componentType" : 5126,
            "count" : 1222,
            "max" : [
                11.300000190734863,
                2.4830784797668457,
                0.30000001192092896
            ],
            "min" : [
                0.3061283826828003,
                -2.4781367778778076,
                -0.9001478552818298
            ],
            "type" : "VEC3"
        },
        {
            "bufferView" : 13,
            "componentType" : 5126,
            "count" : 1222,
            "type" : "VEC3"
        },
        {
            "bufferView" : 14,
            "componentType" : 5123,
            "count" : 1830,
            "type" : "SCALAR"
        },
        {
            "bufferView" : 15,
            "componentType" : 5126,
            "count" : 83,
            "max" : [
                0.6670000553131104,
                0.10314911603927612,
                4.440892098500626e-16
            ],
            "min" : [
                0,
                0,
                -0.6860000491142273
            ],
            "type" : "VEC3"
        },
        {
            "bufferView" : 16,
            "componentType" : 5126,
            "count" : 83,
            "type" : "VEC3"
        },
        {
            "bufferView" : 17,
            "componentType" : 5126,
            "count" : 83,
            "type" : "VEC2"
        },
        {
            "bufferView" : 18,
            "componentType" : 5123,
            "count" : 132,
            "type" : "SCALAR"
        },
        {
            "bufferView" : 19,
            "componentType" : 5126,
            "count" : 320,
            "max" : [
                1,
                1,
                1
            ],
            "min" : [
                -1,
                -12.295050621032715,
                -1
            ],
            "type" : "VEC3"
        },
        {
            "bufferView" : 20,
            "componentType" : 5126,
            "count" : 320,
            "type" : "VEC3"
        },
        {
            "bufferView" : 21,
            "componentType" : 5126,
            "count" : 320,
            "type" : "VEC2"
        },
        {
            "bufferView" : 22,
            "componentType" : 5123,
            "count" : 558,
            "type" : "SCALAR"
        },
        {
            "bufferView" : 23,
            "componentType" : 5126,
            "count" : 320,
            "max" : [
                1,
                1,
                1
            ],
            "min" : [
                -1,
                -12.295050621032715,
                -1
            ],
            "type" : "VEC3"
        },
        {
            "bufferView" : 24,
            "componentType" : 5126,
            "count" : 320,
            "type" : "VEC3"
        },
        {
            "bufferView" : 25,
            "componentType" : 5126,
            "count" : 320,
            "type" : "VEC2"
        },
        {
            "bufferView" : 26,
            "componentType" : 5126,
            "count" : 320,
            "max" : [
                1,
                1,
                1
            ],
            "min" : [
                -1,
                -12.295050621032715,
                -1
            ],
            "type" : "VEC3"
        },
        {
            "bufferView" : 27,
            "componentType" : 5126,
            "count" : 320,
            "type" : "VEC3"
        },
        {
            "bufferView" : 28,
            "componentType" : 5126,
            "count" : 320,
            "type" : "VEC2"
        },
        {
            "bufferView" : 29,
            "componentType" : 5126,
            "count" : 682,
            "max" : [
                2.373000144958496,
                0.04672921448945999,
                1.4343934928717772e-09
            ],
            "min" : [
                0.07000000029802322,
                -0.03281509876251221,
                -0.6860000491142273
            ],
            "type" : "VEC3"
        },
        {
            "bufferView" : 30,
            "componentType" : 5126,
            "count" : 682,
            "type" : "VEC3"
        },
        {
            "bufferView" : 31,
            "componentType" : 5126,
            "count" : 682,
            "type" : "VEC2"
        },
        {
            "bufferView" : 32,
            "componentType" : 5123,
            "count" : 972,
            "type" : "SCALAR"
        },
        {
            "bufferView" : 33,
            "componentType" : 5126,
            "count" : 787,
            "max" : [
                0.5430000424385071,
                0.18067625164985657,
                0
            ],
            "min" : [
                0.07500000298023224,
                0,
                -0.6820000410079956
            ],
            "type" : "VEC3"
        },
        {
            "bufferView" : 34,
            "componentType" : 5126,
            "count" : 787,
            "type" : "VEC3"
        },
        {
            "bufferView" : 35,
            "componentType" : 5126,
            "count" : 787,
            "type" : "VEC2"
        },
        {
            "bufferView" : 36,
            "componentType" : 5123,
            "count" : 1284,
            "type" : "SCALAR"
        }
    ],
    "bufferViews" : [
        {
            "buffer" : 0,
            "byteLength" : 4536,
            "byteOffset" : 0
        },
        {
            "buffer" : 0,
            "byteLength" : 4536,
            "byteOffset" : 4536
        },
        {
            "buffer" : 0,
            "byteLength" : 846,
            "byteOffset" : 9072
        },
        {
            "buffer" : 0,
            "byteLength" : 4800,
            "byteOffset" : 9920
        },
        {
            "buffer" : 0,
            "byteLength" : 4800,
            "byteOffset" : 14720
        },
        {
            "buffer" : 0,
            "byteLength" : 1254,
            "byteOffset" : 19520
        },
        {
            "buffer" : 0,
            "byteLength" : 15516,
            "byteOffset" : 20776
        },
        {
            "buffer" : 0,
            "byteLength" : 15516,
            "byteOffset" : 36292
        },
        {
            "buffer" : 0,
            "byteLength" : 2880,
            "byteOffset" : 51808
        },
        {
            "buffer" : 0,
            "byteLength" : 168,
            "byteOffset" : 54688
        },
        {
            "buffer" : 0,
            "byteLength" : 168,
            "byteOffset" : 54856
        },
        {
            "buffer" : 0,
            "byteLength" : 36,
            "byteOffset" : 55024
        },
        {
            "buffer" : 0,
            "byteLength" : 14664,
            "byteOffset" : 55060
        },
        {
            "buffer" : 0,
            "byteLength" : 14664,
            "byteOffset" : 69724
        },
        {
            "buffer" : 0,
            "byteLength" : 3660,
            "byteOffset" : 84388
        },
        {
            "buffer" : 0,
            "byteLength" : 996,
            "byteOffset" : 88048
        },
        {
            "buffer" : 0,
            "byteLength" : 996,
            "byteOffset" : 89044
        },
        {
            "buffer" : 0,
            "byteLength" : 664,
            "byteOffset" : 90040
        },
        {
            "buffer" : 0,
            "byteLength" : 264,
            "byteOffset" : 90704
        },
        {
            "buffer" : 0,
            "byteLength" : 3840,
            "byteOffset" : 90968
        },
        {
            "buffer" : 0,
            "byteLength" : 3840,
            "byteOffset" : 94808
        },
        {
            "buffer" : 0,
            "byteLength" : 2560,
            "byteOffset" : 98648
        },
        {
            "buffer" : 0,
            "byteLength" : 1116,
            "byteOffset" : 101208
        },
        {
            "buffer" : 0,
            "byteLength" : 3840,
            "byteOffset" : 102324
        },
        {
            "buffer" : 0,
            "byteLength" : 3840,
            "byteOffset" : 106164
        },
        {
            "buffer" : 0,
            "byteLength" : 2560,
            "byteOffset" : 110004
        },
        {
            "buffer" : 0,
            "byteLength" : 3840,
            "byteOffset" : 112564
        },
        {
            "buffer" : 0,
            "byteLength" : 3840,
            "byteOffset" : 116404
        },
        {
            "buffer" : 0,
            "byteLength" : 2560,
            "byteOffset" : 120244
        },
        {
            "buffer" : 0,
            "byteLength" : 8184,
            "byteOffset" : 122804
        },
        {
            "buffer" : 0,
            "byteLength" : 8184,
            "byteOffset" : 130988
        },
        {
            "buffer" : 0,
            "byteLength" : 5456,
            "byteOffset" : 139172
        },
        {
            "buffer" : 0,
            "byteLength" : 1944,
            "byteOffset" : 144628
        },
        {
            "buffer" : 0,
            "byteLength" : 9444,
            "byteOffset" : 146572
        },
        {
            "buffer" : 0,
            "byteLength" : 9444,
            "byteOffset" : 156016
        },
        {
            "buffer" : 0,
            "byteLength" : 6296,
            "byteOffset" : 165460
        },
        {
            "buffer" : 0,
            "byteLength" : 2568,
            "byteOffset" : 171756
        }
    ],
    "buffers" : [
        {
            "byteLength" : 174324,
            "uri" : "data:application/octet-stream;base64,"
        }
    ]
}
