{
    "asset" : {
        "generator" : "Khronos glTF Blender I/O v1.3.48",
        "version" : "2.0"
    },
    "scene" : 0,
    "scenes" : [
        {
            "name" : "Scene",
            "nodes" : [
                0
            ]
        }
    ],
    "nodes" : [
        {
            "mesh" : 0,
            "name" : "Q1b",
            "rotation" : [
                0.7071068286895752,
                0,
                0,
                0.7071068286895752
            ],
            "translation" : [
                -5.178365707397461,
                0,
                0
            ]
        }
    ],
    "materials" : [
        {
            "doubleSided" : true,
            "emissiveFactor" : [
                0,
                0,
                0
            ],
            "name" : "Material.004",
            "pbrMetallicRoughness" : {
                "baseColorFactor" : [
                    0.410938560962677,
                    0.410938560962677,
                    0.410938560962677,
                    1
                ],
                "metallicFactor" : 0,
                "roughnessFactor" : 0.5
            }
        },
        {
            "doubleSided" : true,
            "emissiveFactor" : [
                0,
                0,
                0
            ],
            "name" : "Material.001",
            "pbrMetallicRoughness" : {
                "baseColorFactor" : [
                    0.22642090916633606,
                    0.22519555687904358,
                    0.3108133375644684,
                    1
                ],
                "metallicFactor" : 0,
                "roughnessFactor" : 0.5
            }
        },
        {
            "doubleSided" : true,
            "emissiveFactor" : [
                0,
                0,
                0
            ],
            "name" : "Material.003",
            "pbrMetallicRoughness" : {
                "baseColorFactor" : [
                    0.195988267660141,
                    0.195988267660141,
                    0.195988267660141,
                    1
                ],
                "metallicFactor" : 0,
                "roughnessFactor" : 0.5
            }
        },
        {
            "doubleSided" : true,
            "emissiveFactor" : [
                0,
                0,
                0
            ],
            "name" : "Material.002",
            "pbrMetallicRoughness" : {
                "baseColorFactor" : [
                    0.11068885028362274,
                    0.11068885028362274,
                    0.11068885028362274,
                    1
                ],
                "metallicFactor" : 0,
                "roughnessFactor" : 0.5
            }
        }
    ],
    "meshes" : [
        {
            "name" : "Q1b",
            "primitives" : [
                {
                    "attributes" : {
                        "POSITION" : 0,
                        "NORMAL" : 1
                    },
                    "indices" : 2,
                    "material" : 0
                },
                {
                    "attributes" : {
                        "POSITION" : 3,
                        "NORMAL" : 4
                    },
                    "indices" : 5,
                    "material" : 1
                },
                {
                    "attributes" : {
                        "POSITION" : 6,
                        "NORMAL" : 7
                    },
                    "indices" : 8,
                    "material" : 2
                },
                {
                    "attributes" : {
                        "POSITION" : 9,
                        "NORMAL" : 10
                    },
                    "indices" : 11,
                    "material" : 3
                }
            ]
        }
    ],
    "accessors" : [
        {
            "bufferView" : 0,
            "componentType" : 5126,
            "count" : 378,
            "max" : [
                2.4926645755767822,
                2.4981653690338135,
                0.30000001192092896
            ],
            "min" : [
                -2.5,
                -2.4981653690338135,
                -3.200000047683716
            ],
            "type" : "VEC3"
        },
        {
            "bufferView" : 1,
            "componentType" : 5126,
            "count" : 378,
            "type" : "VEC3"
        },
        {
            "bufferView" : 2,
            "componentType" : 5123,
            "count" : 423,
            "type" : "SCALAR"
        },
        {
            "bufferView" : 3,
            "componentType" : 5126,
            "count" : 1117,
            "max" : [
                11.300000190734863,
                2.4981653690338135,
                0.30000001192092896
            ],
            "min" : [
                -2.5,
                -2.4981653690338135,
                -3.200000047683716
            ],
            "type" : "VEC3"
        },
        {
            "bufferView" : 4,
            "componentType" : 5126,
            "count" : 1117,
            "type" : "VEC3"
        },
        {
            "bufferView" : 5,
            "componentType" : 5123,
            "count" : 1260,
            "type" : "SCALAR"
        },
        {
            "bufferView" : 6,
            "componentType" : 5126,
            "count" : 8,
            "max" : [
                11.300000190734863,
                1.2000000476837158,
                0.30000001192092896
            ],
            "min" : [
                11.300000190734863,
                -1.2000000476837158,
                -0.8999999761581421
            ],
            "type" : "VEC3"
        },
        {
            "bufferView" : 7,
            "componentType" : 5126,
            "count" : 8,
            "type" : "VEC3"
        },
        {
            "bufferView" : 8,
            "componentType" : 5123,
            "count" : 12,
            "type" : "SCALAR"
        },
        {
            "bufferView" : 9,
            "componentType" : 5126,
            "count" : 379,
            "max" : [
                11.300000190734863,
                2.4779062271118164,
                0.30000001192092896
            ],
            "min" : [
                -1.5927550792694092,
                -2.4779062271118164,
                -2
            ],
            "type" : "VEC3"
        },
        {
            "bufferView" : 10,
            "componentType" : 5126,
            "count" : 379,
            "type" : "VEC3"
        },
        {
            "bufferView" : 11,
            "componentType" : 5123,
            "count" : 609,
            "type" : "SCALAR"
        }
    ],
    "bufferViews" : [
        {
            "buffer" : 0,
            "byteLength" : 4536,
            "byteOffset" : 0
        },
        {
            "buffer" : 0,
            "byteLength" : 4536,
            "byteOffset" : 4536
        },
        {
            "buffer" : 0,
            "byteLength" : 846,
            "byteOffset" : 9072
        },
        {
            "buffer" : 0,
            "byteLength" : 13404,
            "byteOffset" : 9920
        },
        {
            "buffer" : 0,
            "byteLength" : 13404,
            "byteOffset" : 23324
        },
        {
            "buffer" : 0,
            "byteLength" : 2520,
            "byteOffset" : 36728
        },
        {
            "buffer" : 0,
            "byteLength" : 96,
            "byteOffset" : 39248
        },
        {
            "buffer" : 0,
            "byteLength" : 96,
            "byteOffset" : 39344
        },
        {
            "buffer" : 0,
            "byteLength" : 24,
            "byteOffset" : 39440
        },
        {
            "buffer" : 0,
            "byteLength" : 4548,
            "byteOffset" : 39464
        },
        {
            "buffer" : 0,
            "byteLength" : 4548,
            "byteOffset" : 44012
        },
        {
            "buffer" : 0,
            "byteLength" : 1218,
            "byteOffset" : 48560
        }
    ],
    "buffers" : [
        {
            "byteLength" : 49780,
            "uri" : "data:application/octet-stream;base64,"
        }
    ]
}
