{
    "asset" : {
        "generator" : "Khronos glTF Blender I/O v1.3.48",
        "version" : "2.0"
    },
    "scene" : 0,
    "scenes" : [
        {
            "name" : "Scene",
            "nodes" : [
                0
            ]
        }
    ],
    "nodes" : [
        {
            "mesh" : 0,
            "name" : "Q1c",
            "rotation" : [
                0.7071068286895752,
                0,
                0,
                0.7071068286895752
            ],
            "translation" : [
                -3,
                0,
                4
            ]
        }
    ],
    "materials" : [
        {
            "doubleSided" : true,
            "emissiveFactor" : [
                0,
                0,
                0
            ],
            "name" : "Material.006",
            "pbrMetallicRoughness" : {
                "baseColorFactor" : [
                    0.36723870038986206,
                    0.36723870038986206,
                    0.36723870038986206,
                    1
                ],
                "metallicFactor" : 0,
                "roughnessFactor" : 0.5
            }
        },
        {
            "doubleSided" : true,
            "emissiveFactor" : [
                0,
                0,
                0
            ],
            "name" : "Material.001",
            "pbrMetallicRoughness" : {
                "baseColorFactor" : [
                    0.31853967905044556,
                    0.31853967905044556,
                    0.31853967905044556,
                    1
                ],
                "metallicFactor" : 0,
                "roughnessFactor" : 0.5
            }
        },
        {
            "doubleSided" : true,
            "emissiveFactor" : [
                0,
                0,
                0
            ],
            "name" : "Material.003",
            "pbrMetallicRoughness" : {
                "baseColorFactor" : [
                    0.220257967710495,
                    0.220257967710495,
                    0.220257967710495,
                    1
                ],
                "metallicFactor" : 0,
                "roughnessFactor" : 0.5
            }
        },
        {
            "doubleSided" : true,
            "emissiveFactor" : [
                0,
                0,
                0
            ],
            "name" : "Material.005",
            "pbrMetallicRoughness" : {
                "baseColorFactor" : [
                    0.6151783466339111,
                    0.6151783466339111,
                    0.6151783466339111,
                    1
                ],
                "metallicFactor" : 0,
                "roughnessFactor" : 0.5
            }
        },
        {
            "doubleSided" : true,
            "emissiveFactor" : [
                0,
                0,
                0
            ],
            "name" : "Material.002",
            "pbrMetallicRoughness" : {
                "baseColorFactor" : [
                    0.20190146565437317,
                    0.20190146565437317,
                    0.20190146565437317,
                    1
                ],
                "metallicFactor" : 0,
                "roughnessFactor" : 0.5
            }
        },
        {
            "doubleSided" : true,
            "emissiveFactor" : [
                0,
                0,
                0
            ],
            "name" : "Material.004",
            "pbrMetallicRoughness" : {
                "baseColorFactor" : [
                    0.08714040368795395,
                    0.08714040368795395,
                    0.08714040368795395,
                    1
                ],
                "metallicFactor" : 0,
                "roughnessFactor" : 0.5
            }
        }
    ],
    "meshes" : [
        {
            "name" : "Q1c",
            "primitives" : [
                {
                    "attributes" : {
                        "POSITION" : 0,
                        "NORMAL" : 1
                    },
                    "indices" : 2,
                    "material" : 0
                },
                {
                    "attributes" : {
                        "POSITION" : 3,
                        "NORMAL" : 4
                    },
                    "indices" : 5,
                    "material" : 1
                },
                {
                    "attributes" : {
                        "POSITION" : 6,
                        "NORMAL" : 7
                    },
                    "indices" : 8,
                    "material" : 2
                },
                {
                    "attributes" : {
                        "POSITION" : 9,
                        "NORMAL" : 10
                    },
                    "indices" : 11,
                    "material" : 3
                },
                {
                    "attributes" : {
                        "POSITION" : 12,
                        "NORMAL" : 13
                    },
                    "indices" : 14,
                    "material" : 4
                },
                {
                    "attributes" : {
                        "POSITION" : 15,
                        "NORMAL" : 16
                    },
                    "indices" : 17,
                    "material" : 5
                }
            ]
        }
    ],
    "accessors" : [
        {
            "bufferView" : 0,
            "componentType" : 5126,
            "count" : 16,
            "max" : [
                6.400000095367432,
                0,
                0
            ],
            "min" : [
                0,
                -8,
                -5
            ],
            "type" : "VEC3"
        },
        {
            "bufferView" : 1,
            "componentType" : 5126,
            "count" : 16,
            "type" : "VEC3"
        },
        {
            "bufferView" : 2,
            "componentType" : 5123,
            "count" : 30,
            "type" : "SCALAR"
        },
        {
            "bufferView" : 3,
            "componentType" : 5126,
            "count" : 129,
            "max" : [
                5.840000152587891,
                0,
                0
            ],
            "min" : [
                0,
                -8,
                -5
            ],
            "type" : "VEC3"
        },
        {
            "bufferView" : 4,
            "componentType" : 5126,
            "count" : 129,
            "type" : "VEC3"
        },
        {
            "bufferView" : 5,
            "componentType" : 5123,
            "count" : 237,
            "type" : "SCALAR"
        },
        {
            "bufferView" : 6,
            "componentType" : 5126,
            "count" : 41,
            "max" : [
                4.5,
                0,
                -0.800000011920929
            ],
            "min" : [
                4,
                -8,
                -5
            ],
            "type" : "VEC3"
        },
        {
            "bufferView" : 7,
            "componentType" : 5126,
            "count" : 41,
            "type" : "VEC3"
        },
        {
            "bufferView" : 8,
            "componentType" : 5123,
            "count" : 87,
            "type" : "SCALAR"
        },
        {
            "bufferView" : 9,
            "componentType" : 5126,
            "count" : 18,
            "max" : [
                6.400000095367432,
                0,
                0
            ],
            "min" : [
                5,
                -8,
                -2
            ],
            "type" : "VEC3"
        },
        {
            "bufferView" : 10,
            "componentType" : 5126,
            "count" : 18,
            "type" : "VEC3"
        },
        {
            "bufferView" : 11,
            "componentType" : 5123,
            "count" : 18,
            "type" : "SCALAR"
        },
        {
            "bufferView" : 12,
            "componentType" : 5126,
            "count" : 204,
            "max" : [
                4,
                -1.5,
                -2.5
            ],
            "min" : [
                0,
                -6.5,
                -5
            ],
            "type" : "VEC3"
        },
        {
            "bufferView" : 13,
            "componentType" : 5126,
            "count" : 204,
            "type" : "VEC3"
        },
        {
            "bufferView" : 14,
            "componentType" : 5123,
            "count" : 216,
            "type" : "SCALAR"
        },
        {
            "bufferView" : 15,
            "componentType" : 5126,
            "count" : 8,
            "max" : [
                3,
                -0.800000011920929,
                -3.5
            ],
            "min" : [
                1,
                -7.199999809265137,
                -3.5
            ],
            "type" : "VEC3"
        },
        {
            "bufferView" : 16,
            "componentType" : 5126,
            "count" : 8,
            "type" : "VEC3"
        },
        {
            "bufferView" : 17,
            "componentType" : 5123,
            "count" : 12,
            "type" : "SCALAR"
        }
    ],
    "bufferViews" : [
        {
            "buffer" : 0,
            "byteLength" : 192,
            "byteOffset" : 0
        },
        {
            "buffer" : 0,
            "byteLength" : 192,
            "byteOffset" : 192
        },
        {
            "buffer" : 0,
            "byteLength" : 60,
            "byteOffset" : 384
        },
        {
            "buffer" : 0,
            "byteLength" : 1548,
            "byteOffset" : 444
        },
        {
            "buffer" : 0,
            "byteLength" : 1548,
            "byteOffset" : 1992
        },
        {
            "buffer" : 0,
            "byteLength" : 474,
            "byteOffset" : 3540
        },
        {
            "buffer" : 0,
            "byteLength" : 492,
            "byteOffset" : 4016
        },
        {
            "buffer" : 0,
            "byteLength" : 492,
            "byteOffset" : 4508
        },
        {
            "buffer" : 0,
            "byteLength" : 174,
            "byteOffset" : 5000
        },
        {
            "buffer" : 0,
            "byteLength" : 216,
            "byteOffset" : 5176
        },
        {
            "buffer" : 0,
            "byteLength" : 216,
            "byteOffset" : 5392
        },
        {
            "buffer" : 0,
            "byteLength" : 36,
            "byteOffset" : 5608
        },
        {
            "buffer" : 0,
            "byteLength" : 2448,
            "byteOffset" : 5644
        },
        {
            "buffer" : 0,
            "byteLength" : 2448,
            "byteOffset" : 8092
        },
        {
            "buffer" : 0,
            "byteLength" : 432,
            "byteOffset" : 10540
        },
        {
            "buffer" : 0,
            "byteLength" : 96,
            "byteOffset" : 10972
        },
        {
            "buffer" : 0,
            "byteLength" : 96,
            "byteOffset" : 11068
        },
        {
            "buffer" : 0,
            "byteLength" : 24,
            "byteOffset" : 11164
        }
    ],
    "buffers" : [
        {
            "byteLength" : 11188,
            "uri" : "data:application/octet-stream;base64,"
        }
    ]
}
