{
    "asset" : {
        "generator" : "Khronos glTF Blender I/O v1.3.48",
        "version" : "2.0"
    },
    "scene" : 0,
    "scenes" : [
        {
            "name" : "Scene",
            "nodes" : [
                0
            ]
        }
    ],
    "nodes" : [
        {
            "mesh" : 0,
            "name" : "Q1d",
            "rotation" : [
                0.7071068286895752,
                0,
                0,
                0.7071068286895752
            ],
            "translation" : [
                0,
                0,
                4
            ]
        }
    ],
    "materials" : [
        {
            "doubleSided" : true,
            "emissiveFactor" : [
                0,
                0,
                0
            ],
            "name" : "Material.001",
            "pbrMetallicRoughness" : {
                "baseColorFactor" : [
                    0.4575321674346924,
                    0.4575321674346924,
                    0.4575321674346924,
                    1
                ],
                "metallicFactor" : 0,
                "roughnessFactor" : 0.5
            }
        },
        {
            "doubleSided" : true,
            "emissiveFactor" : [
                0,
                0,
                0
            ],
            "name" : "Material.006",
            "pbrMetallicRoughness" : {
                "baseColorFactor" : [
                    0.012217002920806408,
                    0.012217002920806408,
                    0.012217002920806408,
                    1
                ],
                "metallicFactor" : 0,
                "roughnessFactor" : 0.5
            }
        },
        {
            "doubleSided" : true,
            "emissiveFactor" : [
                0,
                0,
                0
            ],
            "name" : "Material.008",
            "pbrMetallicRoughness" : {
                "baseColorFactor" : [
                    0.5070691704750061,
                    0.5070691704750061,
                    0.5070691704750061,
                    1
                ],
                "metallicFactor" : 0,
                "roughnessFactor" : 0.5
            }
        },
        {
            "doubleSided" : true,
            "emissiveFactor" : [
                0,
                0,
                0
            ],
            "name" : "Material.004",
            "pbrMetallicRoughness" : {
                "baseColorFactor" : [
                    0.027210086584091187,
                    0.027210086584091187,
                    0.027210086584091187,
                    1
                ],
                "metallicFactor" : 0,
                "roughnessFactor" : 0.5
            }
        },
        {
            "doubleSided" : true,
            "emissiveFactor" : [
                0,
                0,
                0
            ],
            "name" : "Material.005",
            "pbrMetallicRoughness" : {
                "baseColorFactor" : [
                    0.0549691766500473,
                    0.0549691766500473,
                    0.0549691766500473,
                    1
                ],
                "metallicFactor" : 0,
                "roughnessFactor" : 0.5
            }
        },
        {
            "doubleSided" : true,
            "emissiveFactor" : [
                0,
                0,
                0
            ],
            "name" : "Material.007",
            "pbrMetallicRoughness" : {
                "baseColorFactor" : [
                    0.28829705715179443,
                    0.28829705715179443,
                    0.28829705715179443,
                    1
                ],
                "metallicFactor" : 0,
                "roughnessFactor" : 0.5
            }
        },
        {
            "doubleSided" : true,
            "emissiveFactor" : [
                0,
                0,
                0
            ],
            "name" : "Material.003",
            "pbrMetallicRoughness" : {
                "baseColorFactor" : [
                    0.12371058017015457,
                    0.12371058017015457,
                    0.12371058017015457,
                    1
                ],
                "metallicFactor" : 0,
                "roughnessFactor" : 0.5
            }
        }
    ],
    "meshes" : [
        {
            "name" : "Q1d",
            "primitives" : [
                {
                    "attributes" : {
                        "POSITION" : 0,
                        "NORMAL" : 1
                    },
                    "indices" : 2,
                    "material" : 0
                },
                {
                    "attributes" : {
                        "POSITION" : 3,
                        "NORMAL" : 4
                    },
                    "indices" : 5,
                    "material" : 1
                },
                {
                    "attributes" : {
                        "POSITION" : 6,
                        "NORMAL" : 7
                    },
                    "indices" : 8,
                    "material" : 2
                },
                {
                    "attributes" : {
                        "POSITION" : 9,
                        "NORMAL" : 10
                    },
                    "indices" : 11,
                    "material" : 3
                },
                {
                    "attributes" : {
                        "POSITION" : 12,
                        "NORMAL" : 13
                    },
                    "indices" : 14,
                    "material" : 4
                },
                {
                    "attributes" : {
                        "POSITION" : 15,
                        "NORMAL" : 16
                    },
                    "indices" : 17,
                    "material" : 5
                },
                {
                    "attributes" : {
                        "POSITION" : 18,
                        "NORMAL" : 19
                    },
                    "indices" : 20,
                    "material" : 6
                }
            ]
        }
    ],
    "accessors" : [
        {
            "bufferView" : 0,
            "componentType" : 5126,
            "count" : 922,
            "max" : [
                3,
                2.200000047683716,
                0
            ],
            "min" : [
                -3,
                -9.199999809265137,
                -8.699999809265137
            ],
            "type" : "VEC3"
        },
        {
            "bufferView" : 1,
            "componentType" : 5126,
            "count" : 922,
            "type" : "VEC3"
        },
        {
            "bufferView" : 2,
            "componentType" : 5123,
            "count" : 1041,
            "type" : "SCALAR"
        },
        {
            "bufferView" : 3,
            "componentType" : 5126,
            "count" : 107,
            "max" : [
                3,
                -3,
                0
            ],
            "min" : [
                -3,
                -7.800000190734863,
                -2.4000000953674316
            ],
            "type" : "VEC3"
        },
        {
            "bufferView" : 4,
            "componentType" : 5126,
            "count" : 107,
            "type" : "VEC3"
        },
        {
            "bufferView" : 5,
            "componentType" : 5123,
            "count" : 117,
            "type" : "SCALAR"
        },
        {
            "bufferView" : 6,
            "componentType" : 5126,
            "count" : 279,
            "max" : [
                1.7999999523162842,
                -5.400000095367432,
                0
            ],
            "min" : [
                -1.7999999523162842,
                -9.199999809265137,
                -8.699999809265137
            ],
            "type" : "VEC3"
        },
        {
            "bufferView" : 7,
            "componentType" : 5126,
            "count" : 279,
            "type" : "VEC3"
        },
        {
            "bufferView" : 8,
            "componentType" : 5123,
            "count" : 366,
            "type" : "SCALAR"
        },
        {
            "bufferView" : 9,
            "componentType" : 5126,
            "count" : 188,
            "max" : [
                1.7999999523162842,
                -6.099999904632568,
                -5.599999904632568
            ],
            "min" : [
                -1.7999999523162842,
                -8.5,
                -8
            ],
            "type" : "VEC3"
        },
        {
            "bufferView" : 10,
            "componentType" : 5126,
            "count" : 188,
            "type" : "VEC3"
        },
        {
            "bufferView" : 11,
            "componentType" : 5123,
            "count" : 204,
            "type" : "SCALAR"
        },
        {
            "bufferView" : 12,
            "componentType" : 5126,
            "count" : 54,
            "max" : [
                1.2471745014190674,
                1.2425540685653687,
                -3.200000047683716
            ],
            "min" : [
                -1.2471745014190674,
                -1.145643949508667,
                -3.200000047683716
            ],
            "type" : "VEC3"
        },
        {
            "bufferView" : 13,
            "componentType" : 5126,
            "count" : 54,
            "type" : "VEC3"
        },
        {
            "bufferView" : 14,
            "componentType" : 5123,
            "count" : 72,
            "type" : "SCALAR"
        },
        {
            "bufferView" : 15,
            "componentType" : 5126,
            "count" : 76,
            "max" : [
                3,
                2.200000047683716,
                -1.5
            ],
            "min" : [
                -3,
                -1.9085819721221924,
                -1.5
            ],
            "type" : "VEC3"
        },
        {
            "bufferView" : 16,
            "componentType" : 5126,
            "count" : 76,
            "type" : "VEC3"
        },
        {
            "bufferView" : 17,
            "componentType" : 5123,
            "count" : 84,
            "type" : "SCALAR"
        },
        {
            "bufferView" : 18,
            "componentType" : 5126,
            "count" : 39,
            "max" : [
                0.5,
                -1.145643949508667,
                -1.5
            ],
            "min" : [
                -0.5,
                -5.400000095367432,
                -6.800000190734863
            ],
            "type" : "VEC3"
        },
        {
            "bufferView" : 19,
            "componentType" : 5126,
            "count" : 39,
            "type" : "VEC3"
        },
        {
            "bufferView" : 20,
            "componentType" : 5123,
            "count" : 72,
            "type" : "SCALAR"
        }
    ],
    "bufferViews" : [
        {
            "buffer" : 0,
            "byteLength" : 11064,
            "byteOffset" : 0
        },
        {
            "buffer" : 0,
            "byteLength" : 11064,
            "byteOffset" : 11064
        },
        {
            "buffer" : 0,
            "byteLength" : 2082,
            "byteOffset" : 22128
        },
        {
            "buffer" : 0,
            "byteLength" : 1284,
            "byteOffset" : 24212
        },
        {
            "buffer" : 0,
            "byteLength" : 1284,
            "byteOffset" : 25496
        },
        {
            "buffer" : 0,
            "byteLength" : 234,
            "byteOffset" : 26780
        },
        {
            "buffer" : 0,
            "byteLength" : 3348,
            "byteOffset" : 27016
        },
        {
            "buffer" : 0,
            "byteLength" : 3348,
            "byteOffset" : 30364
        },
        {
            "buffer" : 0,
            "byteLength" : 732,
            "byteOffset" : 33712
        },
        {
            "buffer" : 0,
            "byteLength" : 2256,
            "byteOffset" : 34444
        },
        {
            "buffer" : 0,
            "byteLength" : 2256,
            "byteOffset" : 36700
        },
        {
            "buffer" : 0,
            "byteLength" : 408,
            "byteOffset" : 38956
        },
        {
            "buffer" : 0,
            "byteLength" : 648,
            "byteOffset" : 39364
        },
        {
            "buffer" : 0,
            "byteLength" : 648,
            "byteOffset" : 40012
        },
        {
            "buffer" : 0,
            "byteLength" : 144,
            "byteOffset" : 40660
        },
        {
            "buffer" : 0,
            "byteLength" : 912,
            "byteOffset" : 40804
        },
        {
            "buffer" : 0,
            "byteLength" : 912,
            "byteOffset" : 41716
        },
        {
            "buffer" : 0,
            "byteLength" : 168,
            "byteOffset" : 42628
        },
        {
            "buffer" : 0,
            "byteLength" : 468,
            "byteOffset" : 42796
        },
        {
            "buffer" : 0,
            "byteLength" : 468,
            "byteOffset" : 43264
        },
        {
            "buffer" : 0,
            "byteLength" : 144,
            "byteOffset" : 43732
        }
    ],
    "buffers" : [
        {
            "byteLength" : 43876,
            "uri" : "data:application/octet-stream;base64,"
        }
    ]
}
