{
    "asset" : {
        "generator" : "Khronos glTF Blender I/O v1.5.17",
        "version" : "2.0"
    },
    "scene" : 0,
    "scenes" : [
        {
            "name" : "Scene",
            "nodes" : [
                0,
                1,
                2,
                3,
                4,
                5,
                6,
                7,
                8,
                9,
                10,
                11
            ]
        }
    ],
    "nodes" : [
        {
            "name" : "Light",
            "rotation" : [
                0.16907575726509094,
                0.7558803558349609,
                -0.27217137813568115,
                0.570947527885437
            ],
            "translation" : [
                1.4633173942565918,
                7.863557815551758,
                -3.993990421295166
            ]
        },
        {
            "name" : "Camera",
            "rotation" : [
                0.483536034822464,
                0.33687159419059753,
                -0.20870360732078552,
                0.7804827094078064
            ],
            "translation" : [
                7.358891487121582,
                4.958309173583984,
                6.925790786743164
            ]
        },
        {
            "mesh" : 0,
            "name" : "Model Q2B",
            "rotation" : [
                0.7071068286895752,
                0,
                0,
                0.7071068286895752
            ],
            "translation" : [
                -3.156233549118042,
                0,
                4.819587230682373
            ]
        },
        {
            "mesh" : 1,
            "name" : "A",
            "rotation" : [
                0.7071068286895752,
                0,
                0,
                0.7071068286895752
            ],
            "translation" : [
                -0.26440954208374023,
                0.5068235397338867,
                9.023833274841309
            ]
        },
        {
            "mesh" : 2,
            "name" : "Cone",
            "rotation" : [
                -0.7071068286895752,
                0,
                0,
                0.7071068286895752
            ],
            "scale" : [
                0.17370647192001343,
                0.17370647192001343,
                0.17370647192001343
            ],
            "translation" : [
                3.152860641479492,
                0.6817259788513184,
                1.2025628089904785
            ]
        },
        {
            "mesh" : 3,
            "name" : "Cone.001",
            "rotation" : [
                -1,
                0,
                0,
                -1.6292068494294654e-07
            ],
            "scale" : [
                0.17370647192001343,
                0.17370647192001343,
                0.17370647192001343
            ],
            "translation" : [
                0.5399327278137207,
                7.601686000823975,
                -7.875789642333984
            ]
        },
        {
            "mesh" : 4,
            "name" : "Cone.002",
            "rotation" : [
                -0.7071068286895752,
                0.7071067690849304,
                0,
                -1.9949602858559956e-07
            ],
            "scale" : [
                0.17370647192001343,
                0.17370647192001343,
                0.17370647192001343
            ],
            "translation" : [
                8.109102249145508,
                0.7798151969909668,
                -3.4731040000915527
            ]
        },
        {
            "mesh" : 5,
            "name" : "Cylinder",
            "rotation" : [
                -0.7071068286895752,
                0,
                0,
                0.7071068286895752
            ],
            "scale" : [
                0.07036961615085602,
                0.28351935744285583,
                0.07036961615085602
            ],
            "translation" : [
                -0.0033729076385498047,
                0.6817259788513184,
                6.362846374511719
            ]
        },
        {
            "mesh" : 6,
            "name" : "Cylinder.001",
            "rotation" : [
                -1,
                0,
                0,
                -1.6292068494294654e-07
            ],
            "scale" : [
                0.07036961615085602,
                0.28351935744285583,
                0.07036961615085602
            ],
            "translation" : [
                -2.6163008213043213,
                7.942382335662842,
                -3.0562024116516113
            ]
        },
        {
            "mesh" : 7,
            "name" : "Cylinder.002",
            "rotation" : [
                -0.7071068286895752,
                0.7071067690849304,
                0,
                -1.9949602858559956e-07
            ],
            "scale" : [
                0.07036961615085602,
                0.28351935744285583,
                0.07036961615085602
            ],
            "translation" : [
                5.293564796447754,
                0.7798151969909668,
                1.3464831113815308
            ]
        },
        {
            "mesh" : 8,
            "name" : "Text",
            "rotation" : [
                0.7071068286895752,
                0,
                0,
                0.7071068286895752
            ],
            "translation" : [
                -3.7213547229766846,
                10.583904266357422,
                -3.0647644996643066
            ]
        },
        {
            "mesh" : 9,
            "name" : "Text.001",
            "rotation" : [
                0.7071068286895752,
                0,
                0,
                0.7071068286895752
            ],
            "translation" : [
                7.618695259094238,
                0.49358922243118286,
                1.0912786722183228
            ]
        }
    ],
    "materials" : [
        {
            "doubleSided" : true,
            "name" : "Material.001",
            "pbrMetallicRoughness" : {
                "baseColorFactor" : [
                    0.05220814049243927,
                    0.051242806017398834,
                    0.04840964451432228,
                    1
                ],
                "metallicFactor" : 0,
                "roughnessFactor" : 0.5
            }
        },
        {
            "doubleSided" : true,
            "name" : "Material.003",
            "pbrMetallicRoughness" : {
                "baseColorFactor" : [
                    0.16794593632221222,
                    0.1444651037454605,
                    0.14029653370380402,
                    1
                ],
                "metallicFactor" : 0,
                "roughnessFactor" : 0.5
            }
        },
        {
            "doubleSided" : true,
            "name" : "Material.004",
            "pbrMetallicRoughness" : {
                "baseColorFactor" : [
                    0,
                    0,
                    0,
                    1
                ],
                "metallicFactor" : 0,
                "roughnessFactor" : 0.5
            }
        },
        {
            "doubleSided" : true,
            "name" : "Material.002",
            "pbrMetallicRoughness" : {
                "baseColorFactor" : [
                    0,
                    0,
                    0,
                    1
                ],
                "metallicFactor" : 0,
                "roughnessFactor" : 0.5
            }
        }
    ],
    "meshes" : [
        {
            "name" : "Model Q2B",
            "primitives" : [
                {
                    "attributes" : {
                        "POSITION" : 0,
                        "NORMAL" : 1
                    },
                    "indices" : 2,
                    "material" : 0
                },
                {
                    "attributes" : {
                        "POSITION" : 3,
                        "NORMAL" : 4
                    },
                    "indices" : 5,
                    "material" : 1
                }
            ]
        },
        {
            "name" : "Text",
            "primitives" : [
                {
                    "attributes" : {
                        "POSITION" : 6,
                        "NORMAL" : 7,
                        "TEXCOORD_0" : 8
                    },
                    "indices" : 9,
                    "material" : 2
                }
            ]
        },
        {
            "name" : "Cone",
            "primitives" : [
                {
                    "attributes" : {
                        "POSITION" : 10,
                        "NORMAL" : 11,
                        "TEXCOORD_0" : 12
                    },
                    "indices" : 13,
                    "material" : 3
                }
            ]
        },
        {
            "name" : "Cone.001",
            "primitives" : [
                {
                    "attributes" : {
                        "POSITION" : 14,
                        "NORMAL" : 15,
                        "TEXCOORD_0" : 16
                    },
                    "indices" : 13,
                    "material" : 3
                }
            ]
        },
        {
            "name" : "Cone.002",
            "primitives" : [
                {
                    "attributes" : {
                        "POSITION" : 17,
                        "NORMAL" : 18,
                        "TEXCOORD_0" : 19
                    },
                    "indices" : 13,
                    "material" : 3
                }
            ]
        },
        {
            "name" : "Cylinder",
            "primitives" : [
                {
                    "attributes" : {
                        "POSITION" : 20,
                        "NORMAL" : 21,
                        "TEXCOORD_0" : 22
                    },
                    "indices" : 23,
                    "material" : 3
                }
            ]
        },
        {
            "name" : "Cylinder.001",
            "primitives" : [
                {
                    "attributes" : {
                        "POSITION" : 24,
                        "NORMAL" : 25,
                        "TEXCOORD_0" : 26
                    },
                    "indices" : 23,
                    "material" : 3
                }
            ]
        },
        {
            "name" : "Cylinder.002",
            "primitives" : [
                {
                    "attributes" : {
                        "POSITION" : 27,
                        "NORMAL" : 28,
                        "TEXCOORD_0" : 29
                    },
                    "indices" : 23,
                    "material" : 3
                }
            ]
        },
        {
            "name" : "Text.001",
            "primitives" : [
                {
                    "attributes" : {
                        "POSITION" : 30,
                        "NORMAL" : 31,
                        "TEXCOORD_0" : 32
                    },
                    "indices" : 33,
                    "material" : 2
                }
            ]
        },
        {
            "name" : "Text.002",
            "primitives" : [
                {
                    "attributes" : {
                        "POSITION" : 34,
                        "NORMAL" : 35,
                        "TEXCOORD_0" : 36
                    },
                    "indices" : 37,
                    "material" : 2
                }
            ]
        }
    ],
    "accessors" : [
        {
            "bufferView" : 0,
            "componentType" : 5126,
            "count" : 126,
            "max" : [
                7.199999809265137,
                0,
                0
            ],
            "min" : [
                0,
                -9.199999809265137,
                -6.199999809265137
            ],
            "type" : "VEC3"
        },
        {
            "bufferView" : 1,
            "componentType" : 5126,
            "count" : 126,
            "type" : "VEC3"
        },
        {
            "bufferView" : 2,
            "componentType" : 5123,
            "count" : 231,
            "type" : "SCALAR"
        },
        {
            "bufferView" : 3,
            "componentType" : 5126,
            "count" : 373,
            "max" : [
                7.199999809265137,
                0,
                0
            ],
            "min" : [
                0,
                -9.199999809265137,
                -6.199999809265137
            ],
            "type" : "VEC3"
        },
        {
            "bufferView" : 4,
            "componentType" : 5126,
            "count" : 373,
            "type" : "VEC3"
        },
        {
            "bufferView" : 5,
            "componentType" : 5123,
            "count" : 429,
            "type" : "SCALAR"
        },
        {
            "bufferView" : 6,
            "componentType" : 5126,
            "count" : 83,
            "max" : [
                0.6670000553131104,
                0.10314911603927612,
                4.440892098500626e-16
            ],
            "min" : [
                0,
                0,
                -0.6860000491142273
            ],
            "type" : "VEC3"
        },
        {
            "bufferView" : 7,
            "componentType" : 5126,
            "count" : 83,
            "type" : "VEC3"
        },
        {
            "bufferView" : 8,
            "componentType" : 5126,
            "count" : 83,
            "type" : "VEC2"
        },
        {
            "bufferView" : 9,
            "componentType" : 5123,
            "count" : 132,
            "type" : "SCALAR"
        },
        {
            "bufferView" : 10,
            "componentType" : 5126,
            "count" : 128,
            "max" : [
                1,
                1,
                1
            ],
            "min" : [
                -1,
                -1,
                -1
            ],
            "type" : "VEC3"
        },
        {
            "bufferView" : 11,
            "componentType" : 5126,
            "count" : 128,
            "type" : "VEC3"
        },
        {
            "bufferView" : 12,
            "componentType" : 5126,
            "count" : 128,
            "type" : "VEC2"
        },
        {
            "bufferView" : 13,
            "componentType" : 5123,
            "count" : 186,
            "type" : "SCALAR"
        },
        {
            "bufferView" : 14,
            "componentType" : 5126,
            "count" : 128,
            "max" : [
                1,
                1,
                1
            ],
            "min" : [
                -1,
                -1,
                -1
            ],
            "type" : "VEC3"
        },
        {
            "bufferView" : 15,
            "componentType" : 5126,
            "count" : 128,
            "type" : "VEC3"
        },
        {
            "bufferView" : 16,
            "componentType" : 5126,
            "count" : 128,
            "type" : "VEC2"
        },
        {
            "bufferView" : 17,
            "componentType" : 5126,
            "count" : 128,
            "max" : [
                1,
                1,
                1
            ],
            "min" : [
                -1,
                -1,
                -1
            ],
            "type" : "VEC3"
        },
        {
            "bufferView" : 18,
            "componentType" : 5126,
            "count" : 128,
            "type" : "VEC3"
        },
        {
            "bufferView" : 19,
            "componentType" : 5126,
            "count" : 128,
            "type" : "VEC2"
        },
        {
            "bufferView" : 20,
            "componentType" : 5126,
            "count" : 192,
            "max" : [
                1,
                1,
                1
            ],
            "min" : [
                -1,
                -6.3312554359436035,
                -1.0000009536743164
            ],
            "type" : "VEC3"
        },
        {
            "bufferView" : 21,
            "componentType" : 5126,
            "count" : 192,
            "type" : "VEC3"
        },
        {
            "bufferView" : 22,
            "componentType" : 5126,
            "count" : 192,
            "type" : "VEC2"
        },
        {
            "bufferView" : 23,
            "componentType" : 5123,
            "count" : 372,
            "type" : "SCALAR"
        },
        {
            "bufferView" : 24,
            "componentType" : 5126,
            "count" : 192,
            "max" : [
                1,
                1,
                1
            ],
            "min" : [
                -1,
                -6.3312554359436035,
                -1.0000009536743164
            ],
            "type" : "VEC3"
        },
        {
            "bufferView" : 25,
            "componentType" : 5126,
            "count" : 192,
            "type" : "VEC3"
        },
        {
            "bufferView" : 26,
            "componentType" : 5126,
            "count" : 192,
            "type" : "VEC2"
        },
        {
            "bufferView" : 27,
            "componentType" : 5126,
            "count" : 192,
            "max" : [
                1,
                1,
                1
            ],
            "min" : [
                -1,
                -6.3312554359436035,
                -1.0000009536743164
            ],
            "type" : "VEC3"
        },
        {
            "bufferView" : 28,
            "componentType" : 5126,
            "count" : 192,
            "type" : "VEC3"
        },
        {
            "bufferView" : 29,
            "componentType" : 5126,
            "count" : 192,
            "type" : "VEC2"
        },
        {
            "bufferView" : 30,
            "componentType" : 5126,
            "count" : 682,
            "max" : [
                2.373000144958496,
                0.04672921448945999,
                1.4343934928717772e-09
            ],
            "min" : [
                0.07000000029802322,
                -0.03281509876251221,
                -0.6860000491142273
            ],
            "type" : "VEC3"
        },
        {
            "bufferView" : 31,
            "componentType" : 5126,
            "count" : 682,
            "type" : "VEC3"
        },
        {
            "bufferView" : 32,
            "componentType" : 5126,
            "count" : 682,
            "type" : "VEC2"
        },
        {
            "bufferView" : 33,
            "componentType" : 5123,
            "count" : 972,
            "type" : "SCALAR"
        },
        {
            "bufferView" : 34,
            "componentType" : 5126,
            "count" : 787,
            "max" : [
                0.5430000424385071,
                0.18067625164985657,
                0
            ],
            "min" : [
                0.07500000298023224,
                0,
                -0.6820000410079956
            ],
            "type" : "VEC3"
        },
        {
            "bufferView" : 35,
            "componentType" : 5126,
            "count" : 787,
            "type" : "VEC3"
        },
        {
            "bufferView" : 36,
            "componentType" : 5126,
            "count" : 787,
            "type" : "VEC2"
        },
        {
            "bufferView" : 37,
            "componentType" : 5123,
            "count" : 1284,
            "type" : "SCALAR"
        }
    ],
    "bufferViews" : [
        {
            "buffer" : 0,
            "byteLength" : 1512,
            "byteOffset" : 0
        },
        {
            "buffer" : 0,
            "byteLength" : 1512,
            "byteOffset" : 1512
        },
        {
            "buffer" : 0,
            "byteLength" : 462,
            "byteOffset" : 3024
        },
        {
            "buffer" : 0,
            "byteLength" : 4476,
            "byteOffset" : 3488
        },
        {
            "buffer" : 0,
            "byteLength" : 4476,
            "byteOffset" : 7964
        },
        {
            "buffer" : 0,
            "byteLength" : 858,
            "byteOffset" : 12440
        },
        {
            "buffer" : 0,
            "byteLength" : 996,
            "byteOffset" : 13300
        },
        {
            "buffer" : 0,
            "byteLength" : 996,
            "byteOffset" : 14296
        },
        {
            "buffer" : 0,
            "byteLength" : 664,
            "byteOffset" : 15292
        },
        {
            "buffer" : 0,
            "byteLength" : 264,
            "byteOffset" : 15956
        },
        {
            "buffer" : 0,
            "byteLength" : 1536,
            "byteOffset" : 16220
        },
        {
            "buffer" : 0,
            "byteLength" : 1536,
            "byteOffset" : 17756
        },
        {
            "buffer" : 0,
            "byteLength" : 1024,
            "byteOffset" : 19292
        },
        {
            "buffer" : 0,
            "byteLength" : 372,
            "byteOffset" : 20316
        },
        {
            "buffer" : 0,
            "byteLength" : 1536,
            "byteOffset" : 20688
        },
        {
            "buffer" : 0,
            "byteLength" : 1536,
            "byteOffset" : 22224
        },
        {
            "buffer" : 0,
            "byteLength" : 1024,
            "byteOffset" : 23760
        },
        {
            "buffer" : 0,
            "byteLength" : 1536,
            "byteOffset" : 24784
        },
        {
            "buffer" : 0,
            "byteLength" : 1536,
            "byteOffset" : 26320
        },
        {
            "buffer" : 0,
            "byteLength" : 1024,
            "byteOffset" : 27856
        },
        {
            "buffer" : 0,
            "byteLength" : 2304,
            "byteOffset" : 28880
        },
        {
            "buffer" : 0,
            "byteLength" : 2304,
            "byteOffset" : 31184
        },
        {
            "buffer" : 0,
            "byteLength" : 1536,
            "byteOffset" : 33488
        },
        {
            "buffer" : 0,
            "byteLength" : 744,
            "byteOffset" : 35024
        },
        {
            "buffer" : 0,
            "byteLength" : 2304,
            "byteOffset" : 35768
        },
        {
            "buffer" : 0,
            "byteLength" : 2304,
            "byteOffset" : 38072
        },
        {
            "buffer" : 0,
            "byteLength" : 1536,
            "byteOffset" : 40376
        },
        {
            "buffer" : 0,
            "byteLength" : 2304,
            "byteOffset" : 41912
        },
        {
            "buffer" : 0,
            "byteLength" : 2304,
            "byteOffset" : 44216
        },
        {
            "buffer" : 0,
            "byteLength" : 1536,
            "byteOffset" : 46520
        },
        {
            "buffer" : 0,
            "byteLength" : 8184,
            "byteOffset" : 48056
        },
        {
            "buffer" : 0,
            "byteLength" : 8184,
            "byteOffset" : 56240
        },
        {
            "buffer" : 0,
            "byteLength" : 5456,
            "byteOffset" : 64424
        },
        {
            "buffer" : 0,
            "byteLength" : 1944,
            "byteOffset" : 69880
        },
        {
            "buffer" : 0,
            "byteLength" : 9444,
            "byteOffset" : 71824
        },
        {
            "buffer" : 0,
            "byteLength" : 9444,
            "byteOffset" : 81268
        },
        {
            "buffer" : 0,
            "byteLength" : 6296,
            "byteOffset" : 90712
        },
        {
            "buffer" : 0,
            "byteLength" : 2568,
            "byteOffset" : 97008
        }
    ],
    "buffers" : [
        {
            "byteLength" : 99576,
            "uri" : "data:application/octet-stream;base64,"
        }
    ]
}
