{
    "asset" : {
        "generator" : "Khronos glTF Blender I/O v1.5.17",
        "version" : "2.0"
    },
    "scene" : 0,
    "scenes" : [
        {
            "name" : "Scene",
            "nodes" : [
                0,
                1,
                2,
                3,
                4,
                5,
                6
            ]
        }
    ],
    "nodes" : [
        {
            "mesh" : 0,
            "name" : "tut3qn1a(new)",
            "rotation" : [
                0.7071068286895752,
                0,
                0,
                0.7071068286895752
            ],
            "translation" : [
                0,
                0.9370079040527344,
                -2.949343204498291
            ]
        },
        {
            "mesh" : 1,
            "name" : "A",
            "rotation" : [
                0.7071068286895752,
                0,
                0,
                0.7071068286895752
            ],
            "translation" : [
                -0.32078447937965393,
                0.5068235397338867,
                9.10022258758545
            ]
        },
        {
            "mesh" : 2,
            "name" : "Cone",
            "rotation" : [
                -0.7071068286895752,
                0,
                0,
                0.7071068286895752
            ],
            "scale" : [
                0.17370647192001343,
                0.17370647192001343,
                0.17370647192001343
            ],
            "translation" : [
                -0.015314102172851562,
                0.6817259788513184,
                6.010036468505859
            ]
        },
        {
            "mesh" : 3,
            "name" : "Cone.001",
            "rotation" : [
                -1,
                0,
                0,
                -1.6292068494294654e-07
            ],
            "scale" : [
                0.17370647192001343,
                0.17370647192001343,
                0.17370647192001343
            ],
            "translation" : [
                -0.015314102172851562,
                6.263376712799072,
                -1.3434696197509766
            ]
        },
        {
            "mesh" : 4,
            "name" : "Text",
            "rotation" : [
                0.7071068286895752,
                0,
                0,
                0.7071068286895752
            ],
            "translation" : [
                -1.1203680038452148,
                9.006620407104492,
                -1.3520314693450928
            ]
        },
        {
            "mesh" : 5,
            "name" : "Cone.002",
            "rotation" : [
                -0.7071068286895752,
                0.7071067690849304,
                0,
                -1.9949602858559956e-07
            ],
            "scale" : [
                0.17370647192001343,
                0.17370647192001343,
                0.17370647192001343
            ],
            "translation" : [
                5.774065971374512,
                0.7798151969909668,
                0.07067930698394775
            ]
        },
        {
            "mesh" : 6,
            "name" : "Text.001",
            "rotation" : [
                0.7071068286895752,
                0,
                0,
                0.7071068286895752
            ],
            "translation" : [
                8.439892768859863,
                0.49358922243118286,
                -0.18452522158622742
            ]
        }
    ],
    "materials" : [
        {
            "doubleSided" : true,
            "name" : "Material.001",
            "pbrMetallicRoughness" : {
                "baseColorFactor" : [
                    0.41093775629997253,
                    0.4066532552242279,
                    0.3939529061317444,
                    1
                ],
                "metallicFactor" : 0.7720588445663452,
                "roughnessFactor" : 0.33088237047195435
            }
        },
        {
            "doubleSided" : true,
            "name" : "Material.004",
            "pbrMetallicRoughness" : {
                "baseColorFactor" : [
                    0.08353114128112793,
                    0.07904194295406342,
                    0.07904194295406342,
                    1
                ],
                "metallicFactor" : 0.7720588445663452,
                "roughnessFactor" : 0.33088237047195435
            }
        },
        {
            "doubleSided" : true,
            "name" : "Material.005",
            "pbrMetallicRoughness" : {
                "baseColorFactor" : [
                    0.24619390070438385,
                    0.24619390070438385,
                    0.24619390070438385,
                    1
                ],
                "metallicFactor" : 0,
                "roughnessFactor" : 0.5
            }
        },
        {
            "doubleSided" : true,
            "name" : "Material.002",
            "pbrMetallicRoughness" : {
                "metallicFactor" : 0,
                "roughnessFactor" : 0.5
            }
        },
        {
            "doubleSided" : true,
            "name" : "Material.003",
            "pbrMetallicRoughness" : {
                "baseColorFactor" : [
                    0,
                    0,
                    0,
                    1
                ],
                "metallicFactor" : 0,
                "roughnessFactor" : 0.5
            }
        }
    ],
    "meshes" : [
        {
            "name" : "tut3qn1a(new)",
            "primitives" : [
                {
                    "attributes" : {
                        "POSITION" : 0,
                        "NORMAL" : 1
                    },
                    "indices" : 2,
                    "material" : 0
                },
                {
                    "attributes" : {
                        "POSITION" : 3,
                        "NORMAL" : 4
                    },
                    "indices" : 5,
                    "material" : 1
                },
                {
                    "attributes" : {
                        "POSITION" : 6,
                        "NORMAL" : 7
                    },
                    "indices" : 8,
                    "material" : 2
                }
            ]
        },
        {
            "name" : "Text",
            "primitives" : [
                {
                    "attributes" : {
                        "POSITION" : 9,
                        "NORMAL" : 10,
                        "TEXCOORD_0" : 11
                    },
                    "indices" : 12,
                    "material" : 3
                }
            ]
        },
        {
            "name" : "Cone",
            "primitives" : [
                {
                    "attributes" : {
                        "POSITION" : 13,
                        "NORMAL" : 14,
                        "TEXCOORD_0" : 15
                    },
                    "indices" : 16,
                    "material" : 4
                }
            ]
        },
        {
            "name" : "Cone.001",
            "primitives" : [
                {
                    "attributes" : {
                        "POSITION" : 17,
                        "NORMAL" : 18,
                        "TEXCOORD_0" : 19
                    },
                    "indices" : 20,
                    "material" : 4
                }
            ]
        },
        {
            "name" : "Text.001",
            "primitives" : [
                {
                    "attributes" : {
                        "POSITION" : 21,
                        "NORMAL" : 22,
                        "TEXCOORD_0" : 23
                    },
                    "indices" : 24,
                    "material" : 3
                }
            ]
        },
        {
            "name" : "Cone.002",
            "primitives" : [
                {
                    "attributes" : {
                        "POSITION" : 25,
                        "NORMAL" : 26,
                        "TEXCOORD_0" : 27
                    },
                    "indices" : 20,
                    "material" : 4
                }
            ]
        },
        {
            "name" : "Text.002",
            "primitives" : [
                {
                    "attributes" : {
                        "POSITION" : 28,
                        "NORMAL" : 29,
                        "TEXCOORD_0" : 30
                    },
                    "indices" : 31,
                    "material" : 3
                }
            ]
        }
    ],
    "accessors" : [
        {
            "bufferView" : 0,
            "componentType" : 5126,
            "count" : 83,
            "max" : [
                3.5,
                5.5,
                3.0310888290405273
            ],
            "min" : [
                -3.5,
                0,
                -3.443222999572754
            ],
            "type" : "VEC3"
        },
        {
            "bufferView" : 1,
            "componentType" : 5126,
            "count" : 83,
            "type" : "VEC3"
        },
        {
            "bufferView" : 2,
            "componentType" : 5123,
            "count" : 123,
            "type" : "SCALAR"
        },
        {
            "bufferView" : 3,
            "componentType" : 5126,
            "count" : 143,
            "max" : [
                3.5,
                5.5,
                3.0310888290405273
            ],
            "min" : [
                -3.5,
                0,
                -3.443222999572754
            ],
            "type" : "VEC3"
        },
        {
            "bufferView" : 4,
            "componentType" : 5126,
            "count" : 143,
            "type" : "VEC3"
        },
        {
            "bufferView" : 5,
            "componentType" : 5123,
            "count" : 147,
            "type" : "SCALAR"
        },
        {
            "bufferView" : 6,
            "componentType" : 5126,
            "count" : 8,
            "max" : [
                3.5,
                5.5,
                0
            ],
            "min" : [
                -3.5,
                3,
                0
            ],
            "type" : "VEC3"
        },
        {
            "bufferView" : 7,
            "componentType" : 5126,
            "count" : 8,
            "type" : "VEC3"
        },
        {
            "bufferView" : 8,
            "componentType" : 5123,
            "count" : 12,
            "type" : "SCALAR"
        },
        {
            "bufferView" : 9,
            "componentType" : 5126,
            "count" : 83,
            "max" : [
                0.6670000553131104,
                0.10314911603927612,
                4.440892098500626e-16
            ],
            "min" : [
                0,
                0,
                -0.6860000491142273
            ],
            "type" : "VEC3"
        },
        {
            "bufferView" : 10,
            "componentType" : 5126,
            "count" : 83,
            "type" : "VEC3"
        },
        {
            "bufferView" : 11,
            "componentType" : 5126,
            "count" : 83,
            "type" : "VEC2"
        },
        {
            "bufferView" : 12,
            "componentType" : 5123,
            "count" : 132,
            "type" : "SCALAR"
        },
        {
            "bufferView" : 13,
            "componentType" : 5126,
            "count" : 320,
            "max" : [
                1,
                1,
                1
            ],
            "min" : [
                -1,
                -12.295050621032715,
                -1
            ],
            "type" : "VEC3"
        },
        {
            "bufferView" : 14,
            "componentType" : 5126,
            "count" : 320,
            "type" : "VEC3"
        },
        {
            "bufferView" : 15,
            "componentType" : 5126,
            "count" : 320,
            "type" : "VEC2"
        },
        {
            "bufferView" : 16,
            "componentType" : 5123,
            "count" : 558,
            "type" : "SCALAR"
        },
        {
            "bufferView" : 17,
            "componentType" : 5126,
            "count" : 320,
            "max" : [
                1,
                1,
                1
            ],
            "min" : [
                -1,
                -12.295049667358398,
                -1
            ],
            "type" : "VEC3"
        },
        {
            "bufferView" : 18,
            "componentType" : 5126,
            "count" : 320,
            "type" : "VEC3"
        },
        {
            "bufferView" : 19,
            "componentType" : 5126,
            "count" : 320,
            "type" : "VEC2"
        },
        {
            "bufferView" : 20,
            "componentType" : 5123,
            "count" : 558,
            "type" : "SCALAR"
        },
        {
            "bufferView" : 21,
            "componentType" : 5126,
            "count" : 682,
            "max" : [
                2.373000144958496,
                0.04672921448945999,
                1.4343934928717772e-09
            ],
            "min" : [
                0.07000000029802322,
                -0.03281509876251221,
                -0.6860000491142273
            ],
            "type" : "VEC3"
        },
        {
            "bufferView" : 22,
            "componentType" : 5126,
            "count" : 682,
            "type" : "VEC3"
        },
        {
            "bufferView" : 23,
            "componentType" : 5126,
            "count" : 682,
            "type" : "VEC2"
        },
        {
            "bufferView" : 24,
            "componentType" : 5123,
            "count" : 972,
            "type" : "SCALAR"
        },
        {
            "bufferView" : 25,
            "componentType" : 5126,
            "count" : 320,
            "max" : [
                1,
                1,
                1
            ],
            "min" : [
                -1,
                -12.295048713684082,
                -1
            ],
            "type" : "VEC3"
        },
        {
            "bufferView" : 26,
            "componentType" : 5126,
            "count" : 320,
            "type" : "VEC3"
        },
        {
            "bufferView" : 27,
            "componentType" : 5126,
            "count" : 320,
            "type" : "VEC2"
        },
        {
            "bufferView" : 28,
            "componentType" : 5126,
            "count" : 787,
            "max" : [
                0.5430000424385071,
                0.18067625164985657,
                0
            ],
            "min" : [
                0.07500000298023224,
                0,
                -0.6820000410079956
            ],
            "type" : "VEC3"
        },
        {
            "bufferView" : 29,
            "componentType" : 5126,
            "count" : 787,
            "type" : "VEC3"
        },
        {
            "bufferView" : 30,
            "componentType" : 5126,
            "count" : 787,
            "type" : "VEC2"
        },
        {
            "bufferView" : 31,
            "componentType" : 5123,
            "count" : 1284,
            "type" : "SCALAR"
        }
    ],
    "bufferViews" : [
        {
            "buffer" : 0,
            "byteLength" : 996,
            "byteOffset" : 0
        },
        {
            "buffer" : 0,
            "byteLength" : 996,
            "byteOffset" : 996
        },
        {
            "buffer" : 0,
            "byteLength" : 246,
            "byteOffset" : 1992
        },
        {
            "buffer" : 0,
            "byteLength" : 1716,
            "byteOffset" : 2240
        },
        {
            "buffer" : 0,
            "byteLength" : 1716,
            "byteOffset" : 3956
        },
        {
            "buffer" : 0,
            "byteLength" : 294,
            "byteOffset" : 5672
        },
        {
            "buffer" : 0,
            "byteLength" : 96,
            "byteOffset" : 5968
        },
        {
            "buffer" : 0,
            "byteLength" : 96,
            "byteOffset" : 6064
        },
        {
            "buffer" : 0,
            "byteLength" : 24,
            "byteOffset" : 6160
        },
        {
            "buffer" : 0,
            "byteLength" : 996,
            "byteOffset" : 6184
        },
        {
            "buffer" : 0,
            "byteLength" : 996,
            "byteOffset" : 7180
        },
        {
            "buffer" : 0,
            "byteLength" : 664,
            "byteOffset" : 8176
        },
        {
            "buffer" : 0,
            "byteLength" : 264,
            "byteOffset" : 8840
        },
        {
            "buffer" : 0,
            "byteLength" : 3840,
            "byteOffset" : 9104
        },
        {
            "buffer" : 0,
            "byteLength" : 3840,
            "byteOffset" : 12944
        },
        {
            "buffer" : 0,
            "byteLength" : 2560,
            "byteOffset" : 16784
        },
        {
            "buffer" : 0,
            "byteLength" : 1116,
            "byteOffset" : 19344
        },
        {
            "buffer" : 0,
            "byteLength" : 3840,
            "byteOffset" : 20460
        },
        {
            "buffer" : 0,
            "byteLength" : 3840,
            "byteOffset" : 24300
        },
        {
            "buffer" : 0,
            "byteLength" : 2560,
            "byteOffset" : 28140
        },
        {
            "buffer" : 0,
            "byteLength" : 1116,
            "byteOffset" : 30700
        },
        {
            "buffer" : 0,
            "byteLength" : 8184,
            "byteOffset" : 31816
        },
        {
            "buffer" : 0,
            "byteLength" : 8184,
            "byteOffset" : 40000
        },
        {
            "buffer" : 0,
            "byteLength" : 5456,
            "byteOffset" : 48184
        },
        {
            "buffer" : 0,
            "byteLength" : 1944,
            "byteOffset" : 53640
        },
        {
            "buffer" : 0,
            "byteLength" : 3840,
            "byteOffset" : 55584
        },
        {
            "buffer" : 0,
            "byteLength" : 3840,
            "byteOffset" : 59424
        },
        {
            "buffer" : 0,
            "byteLength" : 2560,
            "byteOffset" : 63264
        },
        {
            "buffer" : 0,
            "byteLength" : 9444,
            "byteOffset" : 65824
        },
        {
            "buffer" : 0,
            "byteLength" : 9444,
            "byteOffset" : 75268
        },
        {
            "buffer" : 0,
            "byteLength" : 6296,
            "byteOffset" : 84712
        },
        {
            "buffer" : 0,
            "byteLength" : 2568,
            "byteOffset" : 91008
        }
    ],
    "buffers" : [
        {
            "byteLength" : 93576,
            "uri" : "data:application/octet-stream;base64,"
        }
    ]
}
