{
    "asset" : {
        "generator" : "Khronos glTF Blender I/O v1.5.17",
        "version" : "2.0"
    },
    "scene" : 0,
    "scenes" : [
        {
            "name" : "Scene",
            "nodes" : [
                0,
                1,
                2,
                3,
                4,
                5,
                6
            ]
        }
    ],
    "nodes" : [
        {
            "mesh" : 0,
            "name" : "Q1c",
            "rotation" : [
                0.7071068286895752,
                0,
                0,
                0.7071068286895752
            ],
            "translation" : [
                -3,
                0,
                4
            ]
        },
        {
            "mesh" : 1,
            "name" : "A",
            "rotation" : [
                0.5,
                0.5,
                -0.5,
                0.4999999701976776
            ],
            "translation" : [
                7.571594715118408,
                0.5068237781524658,
                0.11425113677978516
            ]
        },
        {
            "mesh" : 2,
            "name" : "Cone",
            "rotation" : [
                -0.5,
                0.5,
                0.5,
                0.4999999701976776
            ],
            "scale" : [
                0.17370647192001343,
                0.17370647192001343,
                0.17370647192001343
            ],
            "translation" : [
                5.161950588226318,
                0.6817262172698975,
                0.12956547737121582
            ]
        },
        {
            "mesh" : 3,
            "name" : "Cone.001",
            "rotation" : [
                -0.7071068286895752,
                0,
                0.7071068286895752,
                -1.9949604279645428e-07
            ],
            "scale" : [
                0.17370647192001343,
                0.17370647192001343,
                0.17370647192001343
            ],
            "translation" : [
                -0.9278651475906372,
                5.641989707946777,
                -0.016725093126296997
            ]
        },
        {
            "mesh" : 4,
            "name" : "Cone.002",
            "rotation" : [
                0.5000003576278687,
                -0.5000002980232239,
                0.49999967217445374,
                -0.4999997019767761
            ],
            "scale" : [
                0.17370647192001343,
                0.17370647192001343,
                0.17370647192001343
            ],
            "translation" : [
                0.31614693999290466,
                0.7798153162002563,
                7.94432258605957
            ]
        },
        {
            "mesh" : 5,
            "name" : "Text",
            "rotation" : [
                0.5,
                0.5,
                -0.5,
                0.4999999701976776
            ],
            "translation" : [
                -0.9364269971847534,
                8.624208450317383,
                1.0883288383483887
            ]
        },
        {
            "mesh" : 6,
            "name" : "Text.001",
            "rotation" : [
                -0.4999999403953552,
                -0.5000000596046448,
                0.5000001192092896,
                -0.49999991059303284
            ],
            "translation" : [
                0.5713523626327515,
                0.4935894012451172,
                11.292839050292969
            ]
        }
    ],
    "materials" : [
        {
            "doubleSided" : true,
            "name" : "Material.001",
            "pbrMetallicRoughness" : {
                "baseColorFactor" : [
                    0.31853967905044556,
                    0.31853967905044556,
                    0.31853967905044556,
                    1
                ],
                "metallicFactor" : 0,
                "roughnessFactor" : 0.5
            }
        },
        {
            "doubleSided" : true,
            "name" : "Material.002",
            "pbrMetallicRoughness" : {
                "baseColorFactor" : [
                    0.20190146565437317,
                    0.20190146565437317,
                    0.20190146565437317,
                    1
                ],
                "metallicFactor" : 0,
                "roughnessFactor" : 0.5
            }
        },
        {
            "doubleSided" : true,
            "name" : "Material.003",
            "pbrMetallicRoughness" : {
                "baseColorFactor" : [
                    0.220257967710495,
                    0.220257967710495,
                    0.220257967710495,
                    1
                ],
                "metallicFactor" : 0,
                "roughnessFactor" : 0.5
            }
        },
        {
            "doubleSided" : true,
            "name" : "Material.004",
            "pbrMetallicRoughness" : {
                "baseColorFactor" : [
                    0.08714040368795395,
                    0.08714040368795395,
                    0.08714040368795395,
                    1
                ],
                "metallicFactor" : 0,
                "roughnessFactor" : 0.5
            }
        },
        {
            "doubleSided" : true,
            "name" : "Material.005",
            "pbrMetallicRoughness" : {
                "baseColorFactor" : [
                    0.6151783466339111,
                    0.6151783466339111,
                    0.6151783466339111,
                    1
                ],
                "metallicFactor" : 0,
                "roughnessFactor" : 0.5
            }
        },
        {
            "doubleSided" : true,
            "name" : "Material.006",
            "pbrMetallicRoughness" : {
                "baseColorFactor" : [
                    0.36723870038986206,
                    0.36723870038986206,
                    0.36723870038986206,
                    1
                ],
                "metallicFactor" : 0,
                "roughnessFactor" : 0.5
            }
        },
        {
            "doubleSided" : true,
            "name" : "Material.008",
            "pbrMetallicRoughness" : {
                "baseColorFactor" : [
                    0,
                    0,
                    0,
                    1
                ],
                "metallicFactor" : 0,
                "roughnessFactor" : 0.5
            }
        },
        {
            "doubleSided" : true,
            "name" : "Material.007",
            "pbrMetallicRoughness" : {
                "baseColorFactor" : [
                    0,
                    0,
                    0,
                    1
                ],
                "metallicFactor" : 0,
                "roughnessFactor" : 0.5
            }
        }
    ],
    "meshes" : [
        {
            "name" : "Q1c",
            "primitives" : [
                {
                    "attributes" : {
                        "POSITION" : 0,
                        "NORMAL" : 1
                    },
                    "indices" : 2,
                    "material" : 0
                },
                {
                    "attributes" : {
                        "POSITION" : 3,
                        "NORMAL" : 4
                    },
                    "indices" : 5,
                    "material" : 1
                },
                {
                    "attributes" : {
                        "POSITION" : 6,
                        "NORMAL" : 7
                    },
                    "indices" : 8,
                    "material" : 2
                },
                {
                    "attributes" : {
                        "POSITION" : 9,
                        "NORMAL" : 10
                    },
                    "indices" : 11,
                    "material" : 3
                },
                {
                    "attributes" : {
                        "POSITION" : 12,
                        "NORMAL" : 13
                    },
                    "indices" : 14,
                    "material" : 4
                },
                {
                    "attributes" : {
                        "POSITION" : 15,
                        "NORMAL" : 16
                    },
                    "indices" : 17,
                    "material" : 5
                }
            ]
        },
        {
            "name" : "Text",
            "primitives" : [
                {
                    "attributes" : {
                        "POSITION" : 18,
                        "NORMAL" : 19,
                        "TEXCOORD_0" : 20
                    },
                    "indices" : 21,
                    "material" : 6
                }
            ]
        },
        {
            "name" : "Cone",
            "primitives" : [
                {
                    "attributes" : {
                        "POSITION" : 22,
                        "NORMAL" : 23,
                        "TEXCOORD_0" : 24
                    },
                    "indices" : 25,
                    "material" : 7
                }
            ]
        },
        {
            "name" : "Cone.001",
            "primitives" : [
                {
                    "attributes" : {
                        "POSITION" : 26,
                        "NORMAL" : 27,
                        "TEXCOORD_0" : 28
                    },
                    "indices" : 29,
                    "material" : 7
                }
            ]
        },
        {
            "name" : "Cone.002",
            "primitives" : [
                {
                    "attributes" : {
                        "POSITION" : 30,
                        "NORMAL" : 31,
                        "TEXCOORD_0" : 32
                    },
                    "indices" : 25,
                    "material" : 7
                }
            ]
        },
        {
            "name" : "Text.001",
            "primitives" : [
                {
                    "attributes" : {
                        "POSITION" : 33,
                        "NORMAL" : 34,
                        "TEXCOORD_0" : 35
                    },
                    "indices" : 36,
                    "material" : 6
                }
            ]
        },
        {
            "name" : "Text.002",
            "primitives" : [
                {
                    "attributes" : {
                        "POSITION" : 37,
                        "NORMAL" : 38,
                        "TEXCOORD_0" : 39
                    },
                    "indices" : 40,
                    "material" : 6
                }
            ]
        }
    ],
    "accessors" : [
        {
            "bufferView" : 0,
            "componentType" : 5126,
            "count" : 129,
            "max" : [
                5.840000152587891,
                0,
                0
            ],
            "min" : [
                0,
                -8,
                -5
            ],
            "type" : "VEC3"
        },
        {
            "bufferView" : 1,
            "componentType" : 5126,
            "count" : 129,
            "type" : "VEC3"
        },
        {
            "bufferView" : 2,
            "componentType" : 5123,
            "count" : 237,
            "type" : "SCALAR"
        },
        {
            "bufferView" : 3,
            "componentType" : 5126,
            "count" : 204,
            "max" : [
                4,
                -1.5,
                -2.5
            ],
            "min" : [
                0,
                -6.5,
                -5
            ],
            "type" : "VEC3"
        },
        {
            "bufferView" : 4,
            "componentType" : 5126,
            "count" : 204,
            "type" : "VEC3"
        },
        {
            "bufferView" : 5,
            "componentType" : 5123,
            "count" : 216,
            "type" : "SCALAR"
        },
        {
            "bufferView" : 6,
            "componentType" : 5126,
            "count" : 41,
            "max" : [
                4.5,
                0,
                -0.800000011920929
            ],
            "min" : [
                4,
                -8,
                -5
            ],
            "type" : "VEC3"
        },
        {
            "bufferView" : 7,
            "componentType" : 5126,
            "count" : 41,
            "type" : "VEC3"
        },
        {
            "bufferView" : 8,
            "componentType" : 5123,
            "count" : 87,
            "type" : "SCALAR"
        },
        {
            "bufferView" : 9,
            "componentType" : 5126,
            "count" : 8,
            "max" : [
                3,
                -0.800000011920929,
                -3.5
            ],
            "min" : [
                1,
                -7.199999809265137,
                -3.5
            ],
            "type" : "VEC3"
        },
        {
            "bufferView" : 10,
            "componentType" : 5126,
            "count" : 8,
            "type" : "VEC3"
        },
        {
            "bufferView" : 11,
            "componentType" : 5123,
            "count" : 12,
            "type" : "SCALAR"
        },
        {
            "bufferView" : 12,
            "componentType" : 5126,
            "count" : 18,
            "max" : [
                6.400000095367432,
                0,
                0
            ],
            "min" : [
                5,
                -8,
                -2
            ],
            "type" : "VEC3"
        },
        {
            "bufferView" : 13,
            "componentType" : 5126,
            "count" : 18,
            "type" : "VEC3"
        },
        {
            "bufferView" : 14,
            "componentType" : 5123,
            "count" : 18,
            "type" : "SCALAR"
        },
        {
            "bufferView" : 15,
            "componentType" : 5126,
            "count" : 16,
            "max" : [
                6.400000095367432,
                0,
                0
            ],
            "min" : [
                0,
                -8,
                -5
            ],
            "type" : "VEC3"
        },
        {
            "bufferView" : 16,
            "componentType" : 5126,
            "count" : 16,
            "type" : "VEC3"
        },
        {
            "bufferView" : 17,
            "componentType" : 5123,
            "count" : 30,
            "type" : "SCALAR"
        },
        {
            "bufferView" : 18,
            "componentType" : 5126,
            "count" : 83,
            "max" : [
                0.6670000553131104,
                0.10314911603927612,
                4.440892098500626e-16
            ],
            "min" : [
                0,
                0,
                -0.6860000491142273
            ],
            "type" : "VEC3"
        },
        {
            "bufferView" : 19,
            "componentType" : 5126,
            "count" : 83,
            "type" : "VEC3"
        },
        {
            "bufferView" : 20,
            "componentType" : 5126,
            "count" : 83,
            "type" : "VEC2"
        },
        {
            "bufferView" : 21,
            "componentType" : 5123,
            "count" : 132,
            "type" : "SCALAR"
        },
        {
            "bufferView" : 22,
            "componentType" : 5126,
            "count" : 320,
            "max" : [
                1,
                1,
                1
            ],
            "min" : [
                -1,
                -12.295050621032715,
                -1
            ],
            "type" : "VEC3"
        },
        {
            "bufferView" : 23,
            "componentType" : 5126,
            "count" : 320,
            "type" : "VEC3"
        },
        {
            "bufferView" : 24,
            "componentType" : 5126,
            "count" : 320,
            "type" : "VEC2"
        },
        {
            "bufferView" : 25,
            "componentType" : 5123,
            "count" : 558,
            "type" : "SCALAR"
        },
        {
            "bufferView" : 26,
            "componentType" : 5126,
            "count" : 320,
            "max" : [
                1,
                1,
                1
            ],
            "min" : [
                -1,
                -12.295049667358398,
                -1
            ],
            "type" : "VEC3"
        },
        {
            "bufferView" : 27,
            "componentType" : 5126,
            "count" : 320,
            "type" : "VEC3"
        },
        {
            "bufferView" : 28,
            "componentType" : 5126,
            "count" : 320,
            "type" : "VEC2"
        },
        {
            "bufferView" : 29,
            "componentType" : 5123,
            "count" : 558,
            "type" : "SCALAR"
        },
        {
            "bufferView" : 30,
            "componentType" : 5126,
            "count" : 320,
            "max" : [
                1,
                1,
                1
            ],
            "min" : [
                -1,
                -12.295050621032715,
                -1
            ],
            "type" : "VEC3"
        },
        {
            "bufferView" : 31,
            "componentType" : 5126,
            "count" : 320,
            "type" : "VEC3"
        },
        {
            "bufferView" : 32,
            "componentType" : 5126,
            "count" : 320,
            "type" : "VEC2"
        },
        {
            "bufferView" : 33,
            "componentType" : 5126,
            "count" : 682,
            "max" : [
                2.373000144958496,
                0.04672921448945999,
                1.4343934928717772e-09
            ],
            "min" : [
                0.07000000029802322,
                -0.03281509876251221,
                -0.6860000491142273
            ],
            "type" : "VEC3"
        },
        {
            "bufferView" : 34,
            "componentType" : 5126,
            "count" : 682,
            "type" : "VEC3"
        },
        {
            "bufferView" : 35,
            "componentType" : 5126,
            "count" : 682,
            "type" : "VEC2"
        },
        {
            "bufferView" : 36,
            "componentType" : 5123,
            "count" : 972,
            "type" : "SCALAR"
        },
        {
            "bufferView" : 37,
            "componentType" : 5126,
            "count" : 787,
            "max" : [
                0.5430000424385071,
                0.18067625164985657,
                0
            ],
            "min" : [
                0.07500000298023224,
                0,
                -0.6820000410079956
            ],
            "type" : "VEC3"
        },
        {
            "bufferView" : 38,
            "componentType" : 5126,
            "count" : 787,
            "type" : "VEC3"
        },
        {
            "bufferView" : 39,
            "componentType" : 5126,
            "count" : 787,
            "type" : "VEC2"
        },
        {
            "bufferView" : 40,
            "componentType" : 5123,
            "count" : 1284,
            "type" : "SCALAR"
        }
    ],
    "bufferViews" : [
        {
            "buffer" : 0,
            "byteLength" : 1548,
            "byteOffset" : 0
        },
        {
            "buffer" : 0,
            "byteLength" : 1548,
            "byteOffset" : 1548
        },
        {
            "buffer" : 0,
            "byteLength" : 474,
            "byteOffset" : 3096
        },
        {
            "buffer" : 0,
            "byteLength" : 2448,
            "byteOffset" : 3572
        },
        {
            "buffer" : 0,
            "byteLength" : 2448,
            "byteOffset" : 6020
        },
        {
            "buffer" : 0,
            "byteLength" : 432,
            "byteOffset" : 8468
        },
        {
            "buffer" : 0,
            "byteLength" : 492,
            "byteOffset" : 8900
        },
        {
            "buffer" : 0,
            "byteLength" : 492,
            "byteOffset" : 9392
        },
        {
            "buffer" : 0,
            "byteLength" : 174,
            "byteOffset" : 9884
        },
        {
            "buffer" : 0,
            "byteLength" : 96,
            "byteOffset" : 10060
        },
        {
            "buffer" : 0,
            "byteLength" : 96,
            "byteOffset" : 10156
        },
        {
            "buffer" : 0,
            "byteLength" : 24,
            "byteOffset" : 10252
        },
        {
            "buffer" : 0,
            "byteLength" : 216,
            "byteOffset" : 10276
        },
        {
            "buffer" : 0,
            "byteLength" : 216,
            "byteOffset" : 10492
        },
        {
            "buffer" : 0,
            "byteLength" : 36,
            "byteOffset" : 10708
        },
        {
            "buffer" : 0,
            "byteLength" : 192,
            "byteOffset" : 10744
        },
        {
            "buffer" : 0,
            "byteLength" : 192,
            "byteOffset" : 10936
        },
        {
            "buffer" : 0,
            "byteLength" : 60,
            "byteOffset" : 11128
        },
        {
            "buffer" : 0,
            "byteLength" : 996,
            "byteOffset" : 11188
        },
        {
            "buffer" : 0,
            "byteLength" : 996,
            "byteOffset" : 12184
        },
        {
            "buffer" : 0,
            "byteLength" : 664,
            "byteOffset" : 13180
        },
        {
            "buffer" : 0,
            "byteLength" : 264,
            "byteOffset" : 13844
        },
        {
            "buffer" : 0,
            "byteLength" : 3840,
            "byteOffset" : 14108
        },
        {
            "buffer" : 0,
            "byteLength" : 3840,
            "byteOffset" : 17948
        },
        {
            "buffer" : 0,
            "byteLength" : 2560,
            "byteOffset" : 21788
        },
        {
            "buffer" : 0,
            "byteLength" : 1116,
            "byteOffset" : 24348
        },
        {
            "buffer" : 0,
            "byteLength" : 3840,
            "byteOffset" : 25464
        },
        {
            "buffer" : 0,
            "byteLength" : 3840,
            "byteOffset" : 29304
        },
        {
            "buffer" : 0,
            "byteLength" : 2560,
            "byteOffset" : 33144
        },
        {
            "buffer" : 0,
            "byteLength" : 1116,
            "byteOffset" : 35704
        },
        {
            "buffer" : 0,
            "byteLength" : 3840,
            "byteOffset" : 36820
        },
        {
            "buffer" : 0,
            "byteLength" : 3840,
            "byteOffset" : 40660
        },
        {
            "buffer" : 0,
            "byteLength" : 2560,
            "byteOffset" : 44500
        },
        {
            "buffer" : 0,
            "byteLength" : 8184,
            "byteOffset" : 47060
        },
        {
            "buffer" : 0,
            "byteLength" : 8184,
            "byteOffset" : 55244
        },
        {
            "buffer" : 0,
            "byteLength" : 5456,
            "byteOffset" : 63428
        },
        {
            "buffer" : 0,
            "byteLength" : 1944,
            "byteOffset" : 68884
        },
        {
            "buffer" : 0,
            "byteLength" : 9444,
            "byteOffset" : 70828
        },
        {
            "buffer" : 0,
            "byteLength" : 9444,
            "byteOffset" : 80272
        },
        {
            "buffer" : 0,
            "byteLength" : 6296,
            "byteOffset" : 89716
        },
        {
            "buffer" : 0,
            "byteLength" : 2568,
            "byteOffset" : 96012
        }
    ],
    "buffers" : [
        {
            "byteLength" : 98580,
            "uri" : "Tut3qn1c.bin"
        }
    ]
}
