{
    "asset" : {
        "generator" : "Khronos glTF Blender I/O v1.5.17",
        "version" : "2.0"
    },
    "scene" : 0,
    "scenes" : [
        {
            "name" : "Scene",
            "nodes" : [
                0,
                1,
                2,
                3,
                4,
                5,
                6
            ]
        }
    ],
    "nodes" : [
        {
            "mesh" : 0,
            "name" : "Q1b",
            "rotation" : [
                0.7071068286895752,
                0,
                0,
                0.7071068286895752
            ],
            "translation" : [
                -5.178365707397461,
                0,
                0
            ]
        },
        {
            "mesh" : 1,
            "name" : "A",
            "rotation" : [
                0.7071068286895752,
                0,
                0,
                0.7071068286895752
            ],
            "translation" : [
                -0.25588780641555786,
                0.5068235397338867,
                7.155990123748779
            ]
        },
        {
            "mesh" : 2,
            "name" : "Cone",
            "rotation" : [
                -0.7071068286895752,
                0,
                0,
                0.7071068286895752
            ],
            "scale" : [
                0.17370647192001343,
                0.17370647192001343,
                0.17370647192001343
            ],
            "translation" : [
                -0.015314102172851562,
                0.6817259788513184,
                4.7463459968566895
            ]
        },
        {
            "mesh" : 3,
            "name" : "Cone.001",
            "rotation" : [
                -1,
                0,
                0,
                -1.6292068494294654e-07
            ],
            "scale" : [
                0.17370647192001343,
                0.17370647192001343,
                0.17370647192001343
            ],
            "translation" : [
                -0.015314102172851562,
                5.6419901847839355,
                -0.0024726390838623047
            ]
        },
        {
            "mesh" : 4,
            "name" : "Cone.002",
            "rotation" : [
                -0.7071068286895752,
                0.7071067690849304,
                0,
                -1.9949602858559956e-07
            ],
            "scale" : [
                0.17370647192001343,
                0.17370647192001343,
                0.17370647192001343
            ],
            "translation" : [
                7.072878837585449,
                0.7798151969909668,
                0.07067930698394775
            ]
        },
        {
            "mesh" : 5,
            "name" : "Text",
            "rotation" : [
                0.7071068286895752,
                0,
                0,
                0.7071068286895752
            ],
            "translation" : [
                -1.1203680038452148,
                8.624208450317383,
                -0.011034488677978516
            ]
        },
        {
            "mesh" : 6,
            "name" : "Text.001",
            "rotation" : [
                0.7071068286895752,
                0,
                0,
                0.7071068286895752
            ],
            "translation" : [
                9.7387056350708,
                0.49358922243118286,
                -0.18452522158622742
            ]
        }
    ],
    "materials" : [
        {
            "doubleSided" : true,
            "name" : "Material.001",
            "pbrMetallicRoughness" : {
                "baseColorFactor" : [
                    0.22642090916633606,
                    0.22519555687904358,
                    0.3108133375644684,
                    1
                ],
                "metallicFactor" : 0,
                "roughnessFactor" : 0.5
            }
        },
        {
            "doubleSided" : true,
            "name" : "Material.002",
            "pbrMetallicRoughness" : {
                "baseColorFactor" : [
                    0.11068885028362274,
                    0.11068885028362274,
                    0.11068885028362274,
                    1
                ],
                "metallicFactor" : 0,
                "roughnessFactor" : 0.5
            }
        },
        {
            "doubleSided" : true,
            "name" : "Material.003",
            "pbrMetallicRoughness" : {
                "baseColorFactor" : [
                    0.195988267660141,
                    0.195988267660141,
                    0.195988267660141,
                    1
                ],
                "metallicFactor" : 0,
                "roughnessFactor" : 0.5
            }
        },
        {
            "doubleSided" : true,
            "name" : "Material.004",
            "pbrMetallicRoughness" : {
                "baseColorFactor" : [
                    0.410938560962677,
                    0.410938560962677,
                    0.410938560962677,
                    1
                ],
                "metallicFactor" : 0,
                "roughnessFactor" : 0.5
            }
        },
        {
            "doubleSided" : true,
            "name" : "Material.006",
            "pbrMetallicRoughness" : {
                "baseColorFactor" : [
                    0,
                    0,
                    0,
                    1
                ],
                "metallicFactor" : 0,
                "roughnessFactor" : 0.5
            }
        },
        {
            "doubleSided" : true,
            "name" : "Material.005",
            "pbrMetallicRoughness" : {
                "baseColorFactor" : [
                    0,
                    0,
                    0,
                    1
                ],
                "metallicFactor" : 0,
                "roughnessFactor" : 0.5
            }
        }
    ],
    "meshes" : [
        {
            "name" : "Q1b",
            "primitives" : [
                {
                    "attributes" : {
                        "POSITION" : 0,
                        "NORMAL" : 1
                    },
                    "indices" : 2,
                    "material" : 0
                },
                {
                    "attributes" : {
                        "POSITION" : 3,
                        "NORMAL" : 4
                    },
                    "indices" : 5,
                    "material" : 1
                },
                {
                    "attributes" : {
                        "POSITION" : 6,
                        "NORMAL" : 7
                    },
                    "indices" : 8,
                    "material" : 2
                },
                {
                    "attributes" : {
                        "POSITION" : 9,
                        "NORMAL" : 10
                    },
                    "indices" : 11,
                    "material" : 3
                }
            ]
        },
        {
            "name" : "Text",
            "primitives" : [
                {
                    "attributes" : {
                        "POSITION" : 12,
                        "NORMAL" : 13,
                        "TEXCOORD_0" : 14
                    },
                    "indices" : 15,
                    "material" : 4
                }
            ]
        },
        {
            "name" : "Cone",
            "primitives" : [
                {
                    "attributes" : {
                        "POSITION" : 16,
                        "NORMAL" : 17,
                        "TEXCOORD_0" : 18
                    },
                    "indices" : 19,
                    "material" : 5
                }
            ]
        },
        {
            "name" : "Cone.001",
            "primitives" : [
                {
                    "attributes" : {
                        "POSITION" : 20,
                        "NORMAL" : 21,
                        "TEXCOORD_0" : 22
                    },
                    "indices" : 23,
                    "material" : 5
                }
            ]
        },
        {
            "name" : "Cone.002",
            "primitives" : [
                {
                    "attributes" : {
                        "POSITION" : 24,
                        "NORMAL" : 25,
                        "TEXCOORD_0" : 26
                    },
                    "indices" : 27,
                    "material" : 5
                }
            ]
        },
        {
            "name" : "Text.001",
            "primitives" : [
                {
                    "attributes" : {
                        "POSITION" : 28,
                        "NORMAL" : 29,
                        "TEXCOORD_0" : 30
                    },
                    "indices" : 31,
                    "material" : 4
                }
            ]
        },
        {
            "name" : "Text.002",
            "primitives" : [
                {
                    "attributes" : {
                        "POSITION" : 32,
                        "NORMAL" : 33,
                        "TEXCOORD_0" : 34
                    },
                    "indices" : 35,
                    "material" : 4
                }
            ]
        }
    ],
    "accessors" : [
        {
            "bufferView" : 0,
            "componentType" : 5126,
            "count" : 1117,
            "max" : [
                11.300000190734863,
                2.4981653690338135,
                0.30000001192092896
            ],
            "min" : [
                -2.5,
                -2.4981653690338135,
                -3.200000047683716
            ],
            "type" : "VEC3"
        },
        {
            "bufferView" : 1,
            "componentType" : 5126,
            "count" : 1117,
            "type" : "VEC3"
        },
        {
            "bufferView" : 2,
            "componentType" : 5123,
            "count" : 1260,
            "type" : "SCALAR"
        },
        {
            "bufferView" : 3,
            "componentType" : 5126,
            "count" : 379,
            "max" : [
                11.300000190734863,
                2.4779062271118164,
                0.30000001192092896
            ],
            "min" : [
                -1.5927550792694092,
                -2.4779062271118164,
                -2
            ],
            "type" : "VEC3"
        },
        {
            "bufferView" : 4,
            "componentType" : 5126,
            "count" : 379,
            "type" : "VEC3"
        },
        {
            "bufferView" : 5,
            "componentType" : 5123,
            "count" : 609,
            "type" : "SCALAR"
        },
        {
            "bufferView" : 6,
            "componentType" : 5126,
            "count" : 8,
            "max" : [
                11.300000190734863,
                1.2000000476837158,
                0.30000001192092896
            ],
            "min" : [
                11.300000190734863,
                -1.2000000476837158,
                -0.8999999761581421
            ],
            "type" : "VEC3"
        },
        {
            "bufferView" : 7,
            "componentType" : 5126,
            "count" : 8,
            "type" : "VEC3"
        },
        {
            "bufferView" : 8,
            "componentType" : 5123,
            "count" : 12,
            "type" : "SCALAR"
        },
        {
            "bufferView" : 9,
            "componentType" : 5126,
            "count" : 378,
            "max" : [
                2.4926645755767822,
                2.4981653690338135,
                0.30000001192092896
            ],
            "min" : [
                -2.5,
                -2.4981653690338135,
                -3.200000047683716
            ],
            "type" : "VEC3"
        },
        {
            "bufferView" : 10,
            "componentType" : 5126,
            "count" : 378,
            "type" : "VEC3"
        },
        {
            "bufferView" : 11,
            "componentType" : 5123,
            "count" : 423,
            "type" : "SCALAR"
        },
        {
            "bufferView" : 12,
            "componentType" : 5126,
            "count" : 83,
            "max" : [
                0.6670000553131104,
                0.10314911603927612,
                4.440892098500626e-16
            ],
            "min" : [
                0,
                0,
                -0.6860000491142273
            ],
            "type" : "VEC3"
        },
        {
            "bufferView" : 13,
            "componentType" : 5126,
            "count" : 83,
            "type" : "VEC3"
        },
        {
            "bufferView" : 14,
            "componentType" : 5126,
            "count" : 83,
            "type" : "VEC2"
        },
        {
            "bufferView" : 15,
            "componentType" : 5123,
            "count" : 132,
            "type" : "SCALAR"
        },
        {
            "bufferView" : 16,
            "componentType" : 5126,
            "count" : 320,
            "max" : [
                1,
                1,
                1
            ],
            "min" : [
                -1,
                -12.295050621032715,
                -1
            ],
            "type" : "VEC3"
        },
        {
            "bufferView" : 17,
            "componentType" : 5126,
            "count" : 320,
            "type" : "VEC3"
        },
        {
            "bufferView" : 18,
            "componentType" : 5126,
            "count" : 320,
            "type" : "VEC2"
        },
        {
            "bufferView" : 19,
            "componentType" : 5123,
            "count" : 558,
            "type" : "SCALAR"
        },
        {
            "bufferView" : 20,
            "componentType" : 5126,
            "count" : 320,
            "max" : [
                1,
                1,
                1
            ],
            "min" : [
                -1,
                -12.295050621032715,
                -1
            ],
            "type" : "VEC3"
        },
        {
            "bufferView" : 21,
            "componentType" : 5126,
            "count" : 320,
            "type" : "VEC3"
        },
        {
            "bufferView" : 22,
            "componentType" : 5126,
            "count" : 320,
            "type" : "VEC2"
        },
        {
            "bufferView" : 23,
            "componentType" : 5123,
            "count" : 558,
            "type" : "SCALAR"
        },
        {
            "bufferView" : 24,
            "componentType" : 5126,
            "count" : 320,
            "max" : [
                1,
                1,
                1
            ],
            "min" : [
                -1,
                -12.295050621032715,
                -1
            ],
            "type" : "VEC3"
        },
        {
            "bufferView" : 25,
            "componentType" : 5126,
            "count" : 320,
            "type" : "VEC3"
        },
        {
            "bufferView" : 26,
            "componentType" : 5126,
            "count" : 320,
            "type" : "VEC2"
        },
        {
            "bufferView" : 27,
            "componentType" : 5123,
            "count" : 558,
            "type" : "SCALAR"
        },
        {
            "bufferView" : 28,
            "componentType" : 5126,
            "count" : 682,
            "max" : [
                2.373000144958496,
                0.04672921448945999,
                1.4343934928717772e-09
            ],
            "min" : [
                0.07000000029802322,
                -0.03281509876251221,
                -0.6860000491142273
            ],
            "type" : "VEC3"
        },
        {
            "bufferView" : 29,
            "componentType" : 5126,
            "count" : 682,
            "type" : "VEC3"
        },
        {
            "bufferView" : 30,
            "componentType" : 5126,
            "count" : 682,
            "type" : "VEC2"
        },
        {
            "bufferView" : 31,
            "componentType" : 5123,
            "count" : 972,
            "type" : "SCALAR"
        },
        {
            "bufferView" : 32,
            "componentType" : 5126,
            "count" : 787,
            "max" : [
                0.5430000424385071,
                0.18067625164985657,
                0
            ],
            "min" : [
                0.07500000298023224,
                0,
                -0.6820000410079956
            ],
            "type" : "VEC3"
        },
        {
            "bufferView" : 33,
            "componentType" : 5126,
            "count" : 787,
            "type" : "VEC3"
        },
        {
            "bufferView" : 34,
            "componentType" : 5126,
            "count" : 787,
            "type" : "VEC2"
        },
        {
            "bufferView" : 35,
            "componentType" : 5123,
            "count" : 1284,
            "type" : "SCALAR"
        }
    ],
    "bufferViews" : [
        {
            "buffer" : 0,
            "byteLength" : 13404,
            "byteOffset" : 0
        },
        {
            "buffer" : 0,
            "byteLength" : 13404,
            "byteOffset" : 13404
        },
        {
            "buffer" : 0,
            "byteLength" : 2520,
            "byteOffset" : 26808
        },
        {
            "buffer" : 0,
            "byteLength" : 4548,
            "byteOffset" : 29328
        },
        {
            "buffer" : 0,
            "byteLength" : 4548,
            "byteOffset" : 33876
        },
        {
            "buffer" : 0,
            "byteLength" : 1218,
            "byteOffset" : 38424
        },
        {
            "buffer" : 0,
            "byteLength" : 96,
            "byteOffset" : 39644
        },
        {
            "buffer" : 0,
            "byteLength" : 96,
            "byteOffset" : 39740
        },
        {
            "buffer" : 0,
            "byteLength" : 24,
            "byteOffset" : 39836
        },
        {
            "buffer" : 0,
            "byteLength" : 4536,
            "byteOffset" : 39860
        },
        {
            "buffer" : 0,
            "byteLength" : 4536,
            "byteOffset" : 44396
        },
        {
            "buffer" : 0,
            "byteLength" : 846,
            "byteOffset" : 48932
        },
        {
            "buffer" : 0,
            "byteLength" : 996,
            "byteOffset" : 49780
        },
        {
            "buffer" : 0,
            "byteLength" : 996,
            "byteOffset" : 50776
        },
        {
            "buffer" : 0,
            "byteLength" : 664,
            "byteOffset" : 51772
        },
        {
            "buffer" : 0,
            "byteLength" : 264,
            "byteOffset" : 52436
        },
        {
            "buffer" : 0,
            "byteLength" : 3840,
            "byteOffset" : 52700
        },
        {
            "buffer" : 0,
            "byteLength" : 3840,
            "byteOffset" : 56540
        },
        {
            "buffer" : 0,
            "byteLength" : 2560,
            "byteOffset" : 60380
        },
        {
            "buffer" : 0,
            "byteLength" : 1116,
            "byteOffset" : 62940
        },
        {
            "buffer" : 0,
            "byteLength" : 3840,
            "byteOffset" : 64056
        },
        {
            "buffer" : 0,
            "byteLength" : 3840,
            "byteOffset" : 67896
        },
        {
            "buffer" : 0,
            "byteLength" : 2560,
            "byteOffset" : 71736
        },
        {
            "buffer" : 0,
            "byteLength" : 1116,
            "byteOffset" : 74296
        },
        {
            "buffer" : 0,
            "byteLength" : 3840,
            "byteOffset" : 75412
        },
        {
            "buffer" : 0,
            "byteLength" : 3840,
            "byteOffset" : 79252
        },
        {
            "buffer" : 0,
            "byteLength" : 2560,
            "byteOffset" : 83092
        },
        {
            "buffer" : 0,
            "byteLength" : 1116,
            "byteOffset" : 85652
        },
        {
            "buffer" : 0,
            "byteLength" : 8184,
            "byteOffset" : 86768
        },
        {
            "buffer" : 0,
            "byteLength" : 8184,
            "byteOffset" : 94952
        },
        {
            "buffer" : 0,
            "byteLength" : 5456,
            "byteOffset" : 103136
        },
        {
            "buffer" : 0,
            "byteLength" : 1944,
            "byteOffset" : 108592
        },
        {
            "buffer" : 0,
            "byteLength" : 9444,
            "byteOffset" : 110536
        },
        {
            "buffer" : 0,
            "byteLength" : 9444,
            "byteOffset" : 119980
        },
        {
            "buffer" : 0,
            "byteLength" : 6296,
            "byteOffset" : 129424
        },
        {
            "buffer" : 0,
            "byteLength" : 2568,
            "byteOffset" : 135720
        }
    ],
    "buffers" : [
        {
            "byteLength" : 138288,
            "uri" : "data:application/octet-stream;base64,"
        }
    ]
}
